<svg width="129" height="129" viewBox="0 0 129 129" fill="none" xmlns="http://www.w3.org/2000/svg">
<path d="M96.7309 48.4613H75.3463M96.7309 64.4997H75.3463M64.654 83.2113C63.1376 77.1107 56.5332 72.519 48.6155 72.519C40.6978 72.519 34.0934 77.1107 32.577 83.2113M33.6463 101.923H95.6617C101.65 101.923 104.644 101.923 106.931 100.757C108.943 99.7323 110.579 98.0966 111.604 96.0847C112.769 93.7975 112.769 90.8034 112.769 84.8151V44.1844C112.769 38.1961 112.769 35.202 111.604 32.9148C110.579 30.9029 108.943 29.2672 106.931 28.2421C104.644 27.0767 101.65 27.0767 95.6617 27.0767H33.6463C27.658 27.0767 24.6639 27.0767 22.3767 28.2421C20.3648 29.2672 18.7291 30.9029 17.704 32.9148C16.5386 35.202 16.5386 38.1961 16.5386 44.1844V84.8151C16.5386 90.8034 16.5386 93.7975 17.704 96.0847C18.7291 98.0966 20.3648 99.7323 22.3767 100.757C24.6639 101.923 27.658 101.923 33.6463 101.923ZM53.9617 51.1344C53.9617 54.087 51.5681 56.4805 48.6155 56.4805C45.6629 56.4805 43.2693 54.087 43.2693 51.1344C43.2693 48.1818 45.6629 45.7882 48.6155 45.7882C51.5681 45.7882 53.9617 48.1818 53.9617 51.1344Z" stroke="black" stroke-width="8.01923" stroke-linecap="round" stroke-linejoin="round"/>
</svg>
