<svg width="129" height="130" viewBox="0 0 129 130" fill="none" xmlns="http://www.w3.org/2000/svg">
<path d="M64.1538 16.8845L66.7694 12.2219C65.1447 11.3105 63.1629 11.3105 61.5383 12.2219L64.1538 16.8845ZM71.6257 21.0759L69.0102 25.7386C69.7895 26.1757 70.666 26.4106 71.5595 26.4217L71.6257 21.0759ZM80.1923 21.182L84.7887 18.4518C83.8374 16.8503 82.1211 15.8593 80.2585 15.8363L80.1923 21.182ZM84.5675 28.5478L79.971 31.278C80.4273 32.0463 81.069 32.6879 81.8372 33.1443L84.5675 28.5478ZM91.9333 32.923L97.279 32.8568C97.2559 30.9941 96.265 29.2778 94.6635 28.3265L91.9333 32.923ZM92.0394 41.4895L86.6936 41.5558C86.7047 42.4493 86.9395 43.3257 87.3767 44.1051L92.0394 41.4895ZM96.2307 48.9614L100.893 51.577C101.805 49.9524 101.805 47.9705 100.893 46.3459L96.2307 48.9614ZM92.0394 56.4334L87.3767 53.8178C86.9395 54.5972 86.7047 55.4736 86.6936 56.3671L92.0394 56.4334ZM91.9333 64.9999L94.6635 69.5963C96.265 68.6451 97.2559 66.9287 97.279 65.0661L91.9333 64.9999ZM84.5675 69.3751L81.8372 64.7786C81.069 65.235 80.4273 65.8766 79.971 66.6449L84.5675 69.3751ZM80.1923 76.7409L80.2585 82.0866C82.1211 82.0635 83.8374 81.0726 84.7887 79.4711L80.1923 76.7409ZM71.6257 76.847L71.5595 71.5012C70.666 71.5123 69.7895 71.7472 69.0102 72.1843L71.6257 76.847ZM64.1538 81.0384L61.5383 85.701C63.1629 86.6124 65.1447 86.6124 66.7694 85.701L64.1538 81.0384ZM56.6819 76.847L59.2974 72.1843C58.5181 71.7472 57.6416 71.5123 56.7481 71.5012L56.6819 76.847ZM48.1154 76.7409L43.5189 79.4711C44.4702 81.0726 46.1865 82.0635 48.0492 82.0866L48.1154 76.7409ZM43.7402 69.3751L48.3366 66.6449C47.8803 65.8766 47.2387 65.235 46.4704 64.7786L43.7402 69.3751ZM36.3744 64.9999L31.0287 65.0661C31.0517 66.9287 32.0426 68.6451 33.6442 69.5963L36.3744 64.9999ZM36.2683 56.4334L41.614 56.3671C41.603 55.4736 41.3681 54.5972 40.9309 53.8178L36.2683 56.4334ZM32.0769 48.9614L27.4142 46.3459C26.5029 47.9705 26.5029 49.9524 27.4142 51.577L32.0769 48.9614ZM36.2683 41.4895L40.9309 44.1051C41.3681 43.3257 41.603 42.4493 41.614 41.5557L36.2683 41.4895ZM36.3744 32.923L33.6442 28.3265C32.0426 29.2778 31.0517 30.9942 31.0287 32.8568L36.3744 32.923ZM43.7402 28.5478L46.4704 33.1443C47.2387 32.6879 47.8803 32.0463 48.3366 31.278L43.7402 28.5478ZM48.1154 21.182L48.0492 15.8363C46.1865 15.8593 44.4702 16.8503 43.5189 18.4518L48.1154 21.182ZM56.6819 21.0759L56.7481 26.4217C57.6416 26.4106 58.5181 26.1757 59.2974 25.7386L56.6819 21.0759ZM45.4423 113.115H40.0961C40.0961 115.021 41.1106 116.783 42.7589 117.739C44.4072 118.696 46.4401 118.703 48.0947 117.757L45.4423 113.115ZM64.1538 102.423L66.8063 97.7812C65.1627 96.842 63.145 96.842 61.5014 97.7812L64.1538 102.423ZM82.8654 113.115L80.2129 117.757C81.8676 118.703 83.9004 118.696 85.5487 117.739C87.197 116.783 88.2115 115.021 88.2115 113.115H82.8654ZM61.5383 21.5472L69.0102 25.7386L74.2413 16.4133L66.7694 12.2219L61.5383 21.5472ZM71.5595 26.4217L80.1261 26.5278L80.2585 15.8363L71.6919 15.7302L71.5595 26.4217ZM75.5958 23.9122L79.971 31.278L89.1639 25.8176L84.7887 18.4518L75.5958 23.9122ZM81.8372 33.1443L89.203 37.5194L94.6635 28.3265L87.2977 23.9514L81.8372 33.1443ZM86.5875 32.9892L86.6936 41.5558L97.3851 41.4233L97.279 32.8568L86.5875 32.9892ZM87.3767 44.1051L91.5681 51.577L100.893 46.3459L96.702 38.874L87.3767 44.1051ZM91.5681 46.3459L87.3767 53.8178L96.702 59.0489L100.893 51.577L91.5681 46.3459ZM86.6936 56.3671L86.5875 64.9337L97.279 65.0661L97.3851 56.4996L86.6936 56.3671ZM80.1261 71.3951L71.5595 71.5012L71.6919 82.1927L80.2585 82.0866L80.1261 71.3951ZM56.7481 71.5012L48.1816 71.3951L48.0492 82.0866L56.6157 82.1927L56.7481 71.5012ZM41.7201 64.9337L41.614 56.3671L30.9225 56.4996L31.0287 65.0661L41.7201 64.9337ZM40.9309 53.8178L36.7396 46.3459L27.4142 51.577L31.6056 59.0489L40.9309 53.8178ZM36.7396 51.577L40.9309 44.1051L31.6056 38.874L27.4142 46.3459L36.7396 51.577ZM41.614 41.5557L41.7201 32.9892L31.0287 32.8568L30.9225 41.4233L41.614 41.5557ZM39.1046 37.5194L46.4704 33.1443L41.01 23.9514L33.6442 28.3265L39.1046 37.5194ZM48.3366 31.278L52.7118 23.9122L43.5189 18.4518L39.1438 25.8176L48.3366 31.278ZM48.1816 26.5278L56.7481 26.4217L56.6157 15.7302L48.0492 15.8363L48.1816 26.5278ZM59.2974 25.7386L66.7694 21.5472L61.5383 12.2219L54.0664 16.4133L59.2974 25.7386ZM89.203 60.4035L81.8372 64.7786L87.2977 73.9715L94.6635 69.5963L89.203 60.4035ZM46.4704 64.7786L39.1046 60.4035L33.6442 69.5963L41.01 73.9715L46.4704 64.7786ZM69.0102 72.1843L61.5383 76.3757L66.7694 85.701L74.2413 81.5096L69.0102 72.1843ZM66.7694 76.3757L59.2974 72.1843L54.0664 81.5096L61.5383 85.701L66.7694 76.3757ZM48.0947 117.757L66.8063 107.065L61.5014 97.7812L42.7899 108.474L48.0947 117.757ZM61.5014 107.065L80.2129 117.757L85.5178 108.474L66.8063 97.7812L61.5014 107.065ZM88.2115 113.115V72.2406H77.5192V113.115H88.2115ZM79.971 66.6449L78.2689 69.5104L87.4618 74.9708L89.1639 72.1053L79.971 66.6449ZM78.2689 69.5104L75.5958 74.0107L84.7887 79.4711L87.4618 74.9708L78.2689 69.5104ZM40.0961 72.2406V113.115H50.7884V72.2406H40.0961ZM52.7118 74.0107L50.0387 69.5104L40.8458 74.9708L43.5189 79.4711L52.7118 74.0107ZM50.0387 69.5104L48.3366 66.6449L39.1438 72.1053L40.8458 74.9708L50.0387 69.5104ZM69.5 48.9614C69.5 51.914 67.1064 54.3076 64.1538 54.3076V64.9999C73.0116 64.9999 80.1923 57.8192 80.1923 48.9614H69.5ZM64.1538 54.3076C61.2012 54.3076 58.8077 51.914 58.8077 48.9614H48.1154C48.1154 57.8192 55.296 64.9999 64.1538 64.9999V54.3076ZM58.8077 48.9614C58.8077 46.0088 61.2012 43.6153 64.1538 43.6153V32.923C55.296 32.923 48.1154 40.1036 48.1154 48.9614H58.8077ZM64.1538 43.6153C67.1064 43.6153 69.5 46.0088 69.5 48.9614H80.1923C80.1923 40.1036 73.0116 32.923 64.1538 32.923V43.6153Z" fill="black"/>
</svg>
