<svg width="129" height="130" viewBox="0 0 129 130" fill="none" xmlns="http://www.w3.org/2000/svg">
<path d="M16.5386 64.9999H112.769M37.9232 64.9999V75.6922M91.3847 64.9999V75.6922M43.2693 38.2691H42.2001C33.2177 38.2691 28.7265 38.2691 25.2957 40.0172C22.2779 41.5549 19.8243 44.0085 18.2867 47.0263C16.5386 50.4571 16.5386 54.9483 16.5386 63.9307V87.4537C16.5386 96.4361 16.5386 100.927 18.2867 104.358C19.8243 107.376 22.2779 109.83 25.2957 111.367C28.7265 113.115 33.2177 113.115 42.2001 113.115H87.1078C96.0902 113.115 100.581 113.115 104.012 111.367C107.03 109.83 109.484 107.376 111.021 104.358C112.769 100.927 112.769 96.4361 112.769 87.4537V63.9307C112.769 54.9483 112.769 50.4571 111.021 47.0263C109.484 44.0085 107.03 41.5549 104.012 40.0172C100.581 38.2691 96.0902 38.2691 87.1078 38.2691H86.0386M43.2693 38.2691V32.923C43.2693 27.941 43.2693 25.45 44.0832 23.4851C45.1684 20.8651 47.25 18.7836 49.8699 17.6984C51.8348 16.8845 54.3258 16.8845 59.3078 16.8845H70.0001C74.9821 16.8845 77.4731 16.8845 79.438 17.6984C82.058 18.7836 84.1395 20.8651 85.2247 23.4851C86.0386 25.45 86.0386 27.941 86.0386 32.923V38.2691M43.2693 38.2691H86.0386" stroke="black" stroke-width="10.6923" stroke-linecap="round" stroke-linejoin="round"/>
</svg>
