<svg width="129" height="129" viewBox="0 0 129 129" fill="none" xmlns="http://www.w3.org/2000/svg">
<path d="M42.769 11.0388V27.0773" stroke="black" stroke-width="8.01923" stroke-miterlimit="10" stroke-linecap="round" stroke-linejoin="round"/>
<path d="M85.5391 11.0388V27.0773" stroke="black" stroke-width="8.01923" stroke-miterlimit="10" stroke-linecap="round" stroke-linejoin="round"/>
<path d="M18.7114 48.9426H109.596" stroke="black" stroke-width="8.01923" stroke-miterlimit="10" stroke-linecap="round" stroke-linejoin="round"/>
<path d="M96.2313 123.308C108.042 123.308 117.616 113.733 117.616 101.923C117.616 90.1125 108.042 80.5383 96.2313 80.5383C84.4209 80.5383 74.8467 90.1125 74.8467 101.923C74.8467 113.733 84.4209 123.308 96.2313 123.308Z" stroke="black" stroke-width="8.01923" stroke-miterlimit="10" stroke-linecap="round" stroke-linejoin="round"/>
<path d="M104.197 102.19H88.2656" stroke="black" stroke-width="8.01923" stroke-miterlimit="10" stroke-linecap="round" stroke-linejoin="round"/>
<path d="M96.2314 94.3848V110.37" stroke="black" stroke-width="8.01923" stroke-miterlimit="10" stroke-linecap="round" stroke-linejoin="round"/>
<path d="M112.269 45.7886V87.8093C108.366 83.372 102.646 80.5386 96.2304 80.5386C84.4154 80.5386 74.8458 90.1082 74.8458 101.923C74.8458 105.933 75.9685 109.729 77.9466 112.936C79.0693 114.861 80.5127 116.572 82.17 117.962H42.7689C24.0573 117.962 16.0381 107.269 16.0381 91.2309V45.7886C16.0381 29.7502 24.0573 19.0579 42.7689 19.0579H85.5381C104.25 19.0579 112.269 29.7502 112.269 45.7886Z" stroke="black" stroke-width="8.01923" stroke-miterlimit="10" stroke-linecap="round" stroke-linejoin="round"/>
<path d="M64.1296 73.5888H64.1776" stroke="black" stroke-width="8.01923" stroke-linecap="round" stroke-linejoin="round"/>
<path d="M44.3424 73.5888H44.3905" stroke="black" stroke-width="8.01923" stroke-linecap="round" stroke-linejoin="round"/>
<path d="M44.3424 89.6269H44.3905" stroke="black" stroke-width="8.01923" stroke-linecap="round" stroke-linejoin="round"/>
</svg>
