<svg width="129" height="129" viewBox="0 0 129 129" fill="none" xmlns="http://www.w3.org/2000/svg">
<path d="M43.2695 11.0383V27.0768" stroke="black" stroke-width="8.01923" stroke-miterlimit="10" stroke-linecap="round" stroke-linejoin="round"/>
<path d="M86.0381 11.0383V27.0768" stroke="black" stroke-width="8.01923" stroke-miterlimit="10" stroke-linecap="round" stroke-linejoin="round"/>
<path d="M19.2119 48.9424H110.097" stroke="black" stroke-width="8.01923" stroke-miterlimit="10" stroke-linecap="round" stroke-linejoin="round"/>
<path d="M118.116 101.923C118.116 105.933 116.993 109.729 115.015 112.936C111.326 119.138 104.537 123.308 96.7313 123.308C91.3317 123.308 86.4132 121.33 82.6709 117.962C81.0136 116.572 79.5702 114.861 78.4475 112.936C76.4694 109.729 75.3467 105.933 75.3467 101.923C75.3467 90.1082 84.9163 80.5386 96.7313 80.5386C103.147 80.5386 108.867 83.372 112.77 87.8093C116.084 91.605 118.116 96.5236 118.116 101.923Z" stroke="black" stroke-width="8.01923" stroke-miterlimit="10" stroke-linecap="round" stroke-linejoin="round"/>
<path d="M88.3921 101.923L93.6848 107.216L105.072 96.6836" stroke="black" stroke-width="8.01923" stroke-linecap="round" stroke-linejoin="round"/>
<path d="M112.769 45.7881V87.8088C108.867 83.3715 103.146 80.5381 96.7309 80.5381C84.9159 80.5381 75.3463 90.1078 75.3463 101.923C75.3463 105.932 76.469 109.728 78.4471 112.936C79.5697 114.86 81.0132 116.571 82.6705 117.961H43.2693C24.5578 117.961 16.5386 107.269 16.5386 91.2305V45.7881C16.5386 29.7497 24.5578 19.0574 43.2693 19.0574H86.0386C104.75 19.0574 112.769 29.7497 112.769 45.7881Z" stroke="black" stroke-width="8.01923" stroke-miterlimit="10" stroke-linecap="round" stroke-linejoin="round"/>
<path d="M64.63 73.5886H64.6781" stroke="black" stroke-width="8.01923" stroke-linecap="round" stroke-linejoin="round"/>
<path d="M44.842 73.5886H44.89" stroke="black" stroke-width="8.01923" stroke-linecap="round" stroke-linejoin="round"/>
<path d="M44.842 89.6269H44.89" stroke="black" stroke-width="8.01923" stroke-linecap="round" stroke-linejoin="round"/>
</svg>
