<svg width="129" height="129" viewBox="0 0 129 129" fill="none" xmlns="http://www.w3.org/2000/svg">
<path d="M16.5386 48.4614H112.769M64.654 64.4999V80.5384M64.654 96.5768H64.7074M37.9232 16.3845V27.0768M91.3847 16.3845V27.0768M33.6463 112.615H95.6617C101.65 112.615 104.644 112.615 106.931 111.45C108.943 110.425 110.579 108.789 111.604 106.777C112.769 104.49 112.769 101.496 112.769 95.5076V44.1845C112.769 38.1963 112.769 35.2021 111.604 32.9149C110.579 30.903 108.943 29.2673 106.931 28.2422C104.644 27.0768 101.65 27.0768 95.6617 27.0768H33.6463C27.658 27.0768 24.6639 27.0768 22.3767 28.2422C20.3648 29.2673 18.7291 30.903 17.704 32.9149C16.5386 35.2021 16.5386 38.1963 16.5386 44.1845V95.5076C16.5386 101.496 16.5386 104.49 17.704 106.777C18.7291 108.789 20.3648 110.425 22.3767 111.45C24.6639 112.615 27.658 112.615 33.6463 112.615Z" stroke="black" stroke-width="10.6923" stroke-linecap="round" stroke-linejoin="round"/>
</svg>
