<svg width="129" height="129" viewBox="0 0 129 129" fill="none" xmlns="http://www.w3.org/2000/svg">
<path d="M16.0386 48.4614H112.269M48.1155 80.5384L58.8078 91.2307L80.1924 69.8461M37.4232 16.3845V27.0768M90.8847 16.3845V27.0768M33.1463 112.615H95.1617C101.15 112.615 104.144 112.615 106.431 111.45C108.443 110.425 110.079 108.789 111.104 106.777C112.269 104.49 112.269 101.496 112.269 95.5076V44.1845C112.269 38.1963 112.269 35.2021 111.104 32.9149C110.079 30.903 108.443 29.2673 106.431 28.2422C104.144 27.0768 101.15 27.0768 95.1617 27.0768H33.1463C27.158 27.0768 24.1639 27.0768 21.8767 28.2422C19.8648 29.2673 18.2291 30.903 17.204 32.9149C16.0386 35.2021 16.0386 38.1963 16.0386 44.1845V95.5076C16.0386 101.496 16.0386 104.49 17.204 106.777C18.2291 108.789 19.8648 110.425 21.8767 111.45C24.1639 112.615 27.158 112.615 33.1463 112.615Z" stroke="black" stroke-width="10.6923" stroke-linecap="round" stroke-linejoin="round"/>
</svg>
