<svg width="129" height="130" viewBox="0 0 129 130" fill="none" xmlns="http://www.w3.org/2000/svg">
<path d="M42.7689 27.5771C37.4851 27.5812 34.7154 27.6484 32.5686 28.7422C30.5567 29.7673 28.921 31.403 27.8959 33.4149C26.7305 35.7021 26.7305 38.6963 26.7305 44.6845V96.0076C26.7305 101.996 26.7305 104.99 27.8959 107.277C28.921 109.289 30.5567 110.925 32.5686 111.95C34.8558 113.115 37.8499 113.115 43.8382 113.115H84.4689C90.4572 113.115 93.4513 113.115 95.7385 111.95C97.7504 110.925 99.3861 109.289 100.411 107.277C101.577 104.99 101.577 101.996 101.577 96.0076V44.6845C101.577 38.6963 101.577 35.7021 100.411 33.4149C99.3861 31.403 97.7504 29.7673 95.7385 28.7422C93.5917 27.6484 90.822 27.5812 85.5382 27.5771M42.7689 27.5771V38.2691H85.5382V27.5771M42.7689 27.5771V26.011C42.7689 23.5905 43.7305 21.2691 45.442 19.5576C47.1535 17.8461 49.4749 16.8845 51.8954 16.8845H76.4117C78.8322 16.8845 81.1535 17.8461 82.8651 19.5576C84.5766 21.2691 85.5382 23.5905 85.5382 26.011V27.5771M64.1535 81.0384H48.1151M80.192 59.6538H48.1151" stroke="black" stroke-width="10.6923" stroke-linecap="round" stroke-linejoin="round"/>
</svg>
