<svg width="129" height="129" viewBox="0 0 129 129" fill="none" xmlns="http://www.w3.org/2000/svg">
<path d="M80.1924 86.231C78.6761 80.1304 72.0716 75.5387 64.154 75.5387C56.2363 75.5387 49.6319 80.1304 48.1155 86.231M58.8078 16.731H69.5001M64.154 54.154H64.2074M42.7693 27.4233H33.1463C27.158 27.4233 24.1639 27.4233 21.8767 28.5887C19.8648 29.6138 18.2291 31.2495 17.204 33.2614C16.0386 35.5486 16.0386 38.5427 16.0386 44.531V90.5079C16.0386 96.4961 16.0386 99.4903 17.204 101.777C18.2291 103.789 19.8648 105.425 21.8767 106.45C24.1639 107.616 27.158 107.616 33.1463 107.616H95.1617C101.15 107.616 104.144 107.616 106.431 106.45C108.443 105.425 110.079 103.789 111.104 101.777C112.269 99.4903 112.269 96.4961 112.269 90.5079V44.531C112.269 38.5427 112.269 35.5486 111.104 33.2614C110.079 31.2495 108.443 29.6138 106.431 28.5887C104.144 27.4233 101.15 27.4233 95.1617 27.4233H85.5386M69.5001 54.154C69.5001 57.1066 67.1066 59.5002 64.154 59.5002C61.2014 59.5002 58.8078 57.1066 58.8078 54.154C58.8078 51.2014 61.2014 48.8079 64.154 48.8079C67.1066 48.8079 69.5001 51.2014 69.5001 54.154Z" stroke="black" stroke-width="8.01923" stroke-linecap="round" stroke-linejoin="round"/>
</svg>
