<svg width="129" height="130" viewBox="0 0 129 130" fill="none" xmlns="http://www.w3.org/2000/svg">
<g clip-path="url(#clip0_1687_1281)">
<mask id="mask0_1687_1281" style="mask-type:alpha" maskUnits="userSpaceOnUse" x="0" y="0" width="129" height="130">
<rect y="0.845947" width="128.308" height="128.308" fill="#D9D9D9"/>
</mask>
<g mask="url(#mask0_1687_1281)">
<path d="M37.4231 75.6921C34.4827 75.6921 31.9656 74.6451 29.8717 72.5512C27.7778 70.4573 26.7308 67.9402 26.7308 64.9998C26.7308 62.0594 27.7778 59.5422 29.8717 57.4483C31.9656 55.3544 34.4827 54.3075 37.4231 54.3075C40.3635 54.3075 42.8806 55.3544 44.9746 57.4483C47.0685 59.5422 48.1154 62.0594 48.1154 64.9998C48.1154 67.9402 47.0685 70.4573 44.9746 72.5512C42.8806 74.6451 40.3635 75.6921 37.4231 75.6921ZM37.4231 97.0767C28.5129 97.0767 20.9391 93.9581 14.702 87.7209C8.46478 81.4837 5.34619 73.91 5.34619 64.9998C5.34619 56.0895 8.46478 48.5158 14.702 42.2786C20.9391 36.0414 28.5129 32.9229 37.4231 32.9229C43.393 32.9229 48.806 34.393 53.6621 37.3334C58.5181 40.2738 62.3718 44.1498 65.2231 48.9613H112.269L128.308 64.9998L104.25 89.0575L93.5577 81.0382L82.8654 89.0575L71.5048 81.0382H65.2231C62.3718 85.8498 58.5181 89.7257 53.6621 92.6661C48.806 95.6065 43.393 97.0767 37.4231 97.0767ZM37.4231 86.3844C42.4129 86.3844 46.8012 84.8696 50.588 81.8402C54.3749 78.8107 56.892 74.9793 58.1395 70.3459H74.8462L82.5981 75.8257L93.5577 67.6729L103.047 75.0238L113.071 64.9998L107.725 59.6536H58.1395C56.892 55.0203 54.3749 51.1889 50.588 48.1594C46.8012 45.1299 42.4129 43.6152 37.4231 43.6152C31.5423 43.6152 26.508 45.7091 22.3202 49.8969C18.1324 54.0847 16.0385 59.119 16.0385 64.9998C16.0385 70.8805 18.1324 75.9148 22.3202 80.1027C26.508 84.2905 31.5423 86.3844 37.4231 86.3844Z" fill="black"/>
</g>
</g>
<defs>
<clipPath id="clip0_1687_1281">
<rect width="128.308" height="128.308" fill="white" transform="translate(0 0.845947)"/>
</clipPath>
</defs>
</svg>
