<svg width="97" height="97" viewBox="0 0 97 97" fill="none" xmlns="http://www.w3.org/2000/svg">
<path d="M76.1325 44.439H20.0636C15.6398 44.439 12.0537 48.0251 12.0537 52.4488V80.4833C12.0537 84.907 15.6398 88.4931 20.0636 88.4931H76.1325C80.5562 88.4931 84.1424 84.907 84.1424 80.4833V52.4488C84.1424 48.0251 80.5562 44.439 76.1325 44.439Z" stroke="black" stroke-width="4.80591" stroke-linecap="round" stroke-linejoin="round"/>
<path d="M28.0713 44.4391V28.4194C28.0713 23.1085 30.181 18.0152 33.9364 14.2599C37.6917 10.5045 42.7851 8.39478 48.0959 8.39478C53.4068 8.39478 58.5001 10.5045 62.2555 14.2599C66.0108 18.0152 68.1205 23.1085 68.1205 28.4194V44.4391" stroke="black" stroke-width="4.80591" stroke-linecap="round" stroke-linejoin="round"/>
</svg>
