<svg width="129" height="130" viewBox="0 0 129 130" fill="none" xmlns="http://www.w3.org/2000/svg">
<path d="M48.1156 43.6153H80.1925M48.1156 64.9999H80.1925M48.1156 86.3845H64.154M72.1733 113.115H43.8386C37.8504 113.115 34.8563 113.115 32.5691 111.95C30.5572 110.925 28.9215 109.289 27.8963 107.277C26.731 104.99 26.731 101.996 26.731 96.0076V33.9922C26.731 28.004 26.731 25.0098 27.8963 22.7226C28.9215 20.7107 30.5572 19.075 32.5691 18.0499C34.8563 16.8845 37.8504 16.8845 43.8387 16.8845H84.4694C90.4577 16.8845 93.4518 16.8845 95.739 18.0499C97.7509 19.075 99.3866 20.7107 100.412 22.7226C101.577 25.0098 101.577 67.0309 101.577 73.0191" stroke="black" stroke-width="10.6923" stroke-linecap="round" stroke-linejoin="round"/>
<path d="M106.541 93.5127C106.541 97.4495 103.122 100.641 98.904 100.641C94.686 100.641 91.2666 97.4495 91.2666 93.5127C91.2666 89.5759 94.686 86.3845 98.904 86.3845C103.122 86.3845 106.541 89.5759 106.541 93.5127Z" stroke="black" stroke-width="5.34615" stroke-linecap="round" stroke-linejoin="round"/>
</svg>
