<svg width="129" height="130" viewBox="0 0 129 130" fill="none" xmlns="http://www.w3.org/2000/svg">
<path d="M48.6151 43.6153H80.692M48.6151 64.9999H80.692M48.6151 86.3845H64.6535M72.6728 113.115H44.3382C38.3499 113.115 35.3558 113.115 33.0686 111.95C31.0567 110.925 29.421 109.289 28.3959 107.277C27.2305 104.99 27.2305 101.996 27.2305 96.0076V33.9922C27.2305 28.004 27.2305 25.0098 28.3959 22.7226C29.421 20.7107 31.0567 19.075 33.0686 18.0499C35.3558 16.8845 38.3499 16.8845 44.3382 16.8845H84.9689C90.9572 16.8845 93.9513 16.8845 96.2385 18.0499C98.2504 19.075 99.8861 20.7107 100.911 22.7226C102.077 25.0098 102.077 69.704 102.077 75.6922" stroke="black" stroke-width="10.6923" stroke-linecap="round" stroke-linejoin="round"/>
<circle cx="99.4034" cy="105.096" r="16.5525" fill="black" stroke="black" stroke-width="4.31805"/>
<path d="M102.615 100.793C102.615 102.586 101.28 104.04 99.6331 104.04C97.9862 104.04 96.6511 102.586 96.6511 100.793C96.6511 98.9995 97.9862 97.5457 99.6331 97.5457C101.28 97.5457 102.615 98.9995 102.615 100.793Z" fill="white" stroke="white" stroke-width="2.18959" stroke-linecap="round" stroke-linejoin="round"/>
<path d="M101.57 107.919H97.6931H95.7547L93.8164 111.796L95.7547 113.734H103.508L105.446 109.857L103.508 107.919H101.57Z" fill="white"/>
</svg>
