<svg width="129" height="129" viewBox="0 0 129 129" fill="none" xmlns="http://www.w3.org/2000/svg">
<path d="M16.0383 48.4614H112.269M37.4229 16.3845V27.0768M90.8845 16.3845V27.0768M32.0768 69.8461H42.7691M32.0768 91.2307H42.7691M58.8076 69.8461H69.4999M58.8076 91.2307H69.4999M85.5383 69.8461H96.2306M85.5383 91.2307H96.2306M33.146 112.615H95.1614C101.15 112.615 104.144 112.615 106.431 111.45C108.443 110.425 110.079 108.789 111.104 106.777C112.269 104.49 112.269 101.496 112.269 95.5076V44.1845C112.269 38.1963 112.269 35.2021 111.104 32.9149C110.079 30.903 108.443 29.2673 106.431 28.2422C104.144 27.0768 101.15 27.0768 95.1614 27.0768H33.146C27.1578 27.0768 24.1636 27.0768 21.8764 28.2422C19.8645 29.2673 18.2288 30.903 17.2037 32.9149C16.0383 35.2021 16.0383 38.1963 16.0383 44.1845V95.5076C16.0383 101.496 16.0383 104.49 17.2037 106.777C18.2288 108.789 19.8645 110.425 21.8764 111.45C24.1636 112.615 27.1578 112.615 33.146 112.615Z" stroke="black" stroke-width="10.6923" stroke-linecap="round" stroke-linejoin="round"/>
</svg>
