<svg width="129" height="129" viewBox="0 0 129 129" fill="none" xmlns="http://www.w3.org/2000/svg">
<g clip-path="url(#clip0_1687_1308)">
<path d="M58.7125 110.833V100.141C58.7125 85.3781 46.7447 73.4103 31.9817 73.4103C17.2187 73.4103 5.25098 85.3781 5.25098 100.141V110.833H58.7125ZM58.7125 110.833H101.482V105.487C101.482 89.74 89.514 78.7565 74.751 78.7565C67.1951 78.7565 60.3715 82.1004 55.5098 87.4766M48.0202 41.3334C48.0202 50.1912 40.8395 57.3718 31.9817 57.3718C23.1239 57.3718 15.9433 50.1912 15.9433 41.3334C15.9433 32.4756 23.1239 25.2949 31.9817 25.2949C40.8395 25.2949 48.0202 32.4756 48.0202 41.3334ZM85.4433 52.0257C85.4433 57.9309 80.6562 62.718 74.751 62.718C68.8458 62.718 64.0587 57.9309 64.0587 52.0257C64.0587 46.1205 68.8458 41.3334 74.751 41.3334C80.6562 41.3334 85.4433 46.1205 85.4433 52.0257Z" stroke="black" stroke-width="10.6923" stroke-linecap="round" stroke-linejoin="round"/>
<path d="M122.866 30.6408L90.7896 30.6408M106.828 14.6023V46.6792" stroke="black" stroke-width="10.6923" stroke-linecap="round" stroke-linejoin="round"/>
</g>
<defs>
<clipPath id="clip0_1687_1308">
<rect width="128.308" height="128.308" fill="white" transform="translate(0.5 0.345947)"/>
</clipPath>
</defs>
</svg>
