<?xml version="1.0" standalone="no"?>
<!DOCTYPE svg PUBLIC "-//W3C//DTD SVG 1.1//EN" "http://www.w3.org/Graphics/SVG/1.1/DTD/svg11.dtd" >
<svg xmlns="http://www.w3.org/2000/svg">
<metadata>Generated by IcoMoon</metadata>
<defs>
<font id="icomoon" horiz-adv-x="1024">
<font-face units-per-em="1024" ascent="960" descent="-64" />
<missing-glyph horiz-adv-x="1024" />
<glyph unicode="&#x20;" horiz-adv-x="512" d="" />
<glyph unicode="&#xe900;" glyph-name="calendar" horiz-adv-x="888" d="M678.554 846.003v76.985c0 20.233-16.779 37.012-37.012 37.012s-37.012-16.779-37.012-37.012v-74.024h-320.771v74.024c0 20.233-16.779 37.012-37.012 37.012s-37.012-16.779-37.012-37.012v-76.985c-133.243-12.337-197.891-91.79-207.761-209.735-0.987-14.311 10.857-26.155 24.675-26.155h834.992c14.311 0 26.155 12.337 24.675 26.155-9.87 117.945-74.518 197.398-207.761 209.735zM838.94 536.089h-789.59c-27.142 0-49.349-22.207-49.349-49.349v-303.992c0-148.048 74.024-246.747 246.747-246.747h394.795c172.723 0 246.747 98.699 246.747 246.747v303.992c0 27.142-22.207 49.349-49.349 49.349zM306.46 123.034c-2.467-1.974-4.935-4.441-7.402-5.922-2.961-1.974-5.922-3.454-8.883-4.441-2.961-1.48-5.922-2.467-8.883-2.961-3.454-0.493-6.415-0.987-9.87-0.987-6.415 0-12.831 1.48-18.753 3.948-6.415 2.467-11.35 5.922-16.285 10.363-8.883 9.376-14.311 22.207-14.311 35.038s5.428 25.662 14.311 35.038c4.935 4.441 9.87 7.896 16.285 10.363 8.883 3.948 18.753 4.935 28.623 2.961 2.961-0.493 5.922-1.48 8.883-2.961 2.961-0.987 5.922-2.467 8.883-4.441 2.467-1.974 4.935-3.948 7.402-5.922 8.883-9.376 14.311-22.207 14.311-35.038s-5.428-25.662-14.311-35.038zM306.46 295.757c-9.376-8.883-22.207-14.311-35.038-14.311s-25.662 5.428-35.038 14.311c-8.883 9.376-14.311 22.207-14.311 35.038s5.428 25.662 14.311 35.038c13.818 13.818 35.532 18.259 53.791 10.363 6.415-2.467 11.844-5.922 16.285-10.363 8.883-9.376 14.311-22.207 14.311-35.038s-5.428-25.662-14.311-35.038zM479.183 123.034c-9.376-8.883-22.207-14.311-35.038-14.311s-25.662 5.428-35.038 14.311c-8.883 9.376-14.311 22.207-14.311 35.038s5.428 25.662 14.311 35.038c18.259 18.259 51.817 18.259 70.076 0 8.883-9.376 14.311-22.207 14.311-35.038s-5.428-25.662-14.311-35.038zM479.183 295.757c-2.467-1.974-4.935-3.948-7.402-5.922-2.961-1.974-5.922-3.454-8.883-4.441-2.961-1.48-5.922-2.467-8.883-2.961-3.454-0.493-6.415-0.987-9.87-0.987-12.831 0-25.662 5.428-35.038 14.311-8.883 9.376-14.311 22.207-14.311 35.038s5.428 25.662 14.311 35.038c4.441 4.441 9.87 7.896 16.285 10.363 18.259 7.896 39.973 3.454 53.791-10.363 8.883-9.376 14.311-22.207 14.311-35.038s-5.428-25.662-14.311-35.038zM651.906 123.034c-9.376-8.883-22.207-14.311-35.038-14.311s-25.662 5.428-35.038 14.311c-8.883 9.376-14.311 22.207-14.311 35.038s5.428 25.662 14.311 35.038c18.259 18.259 51.817 18.259 70.076 0 8.883-9.376 14.311-22.207 14.311-35.038s-5.428-25.662-14.311-35.038zM651.906 295.757s-4.935-3.948-7.402-5.922c-2.961-1.974-5.922-3.454-8.883-4.441-2.961-1.48-5.922-2.467-8.883-2.961-3.454-0.493-6.909-0.987-9.87-0.987-12.831 0-25.662 5.428-35.038 14.311-8.883 9.376-14.311 22.207-14.311 35.038s5.428 25.662 14.311 35.038c4.935 4.441 9.87 7.896 16.285 10.363 8.883 3.948 18.753 4.935 28.623 2.961 2.961 0 5.922-1.48 8.883-2.961 2.961-0.987 5.922-2.467 8.883-4.441 2.467-1.974 4.935-3.948 7.402-5.922 8.883-9.376 14.311-22.207 14.311-35.038s-5.428-25.662-14.311-35.038z" />
<glyph unicode="&#xe901;" glyph-name="heart-plus" horiz-adv-x="1138" d="M569.142-64c-14.214 0-28.997 5.686-39.8 16.489l-426.43 422.45c-33.546 32.409-59.7 71.64-77.895 115.42-17.626 43.78-26.154 89.835-25.017 137.595 1.137 47.192 11.94 93.246 32.409 135.889 19.9 42.643 48.329 80.737 84.149 111.44 35.82 31.272 76.757 54.014 121.675 68.797 45.486 14.214 92.109 19.331 139.3 13.646 47.192-5.117 92.109-19.331 133.046-43.212 21.606-11.94 40.937-26.723 59.132-42.643 49.466 44.349 111.44 73.346 179.1 83.012 90.403 13.077 180.238-10.234 253.015-64.817s119.969-134.752 133.046-224.586c13.077-90.403-10.234-180.238-64.817-253.015-18.763-25.017-54.583-30.134-79.6-11.371s-30.134 54.583-11.371 79.6c36.389 48.329 51.74 108.597 43.212 168.866s-39.8 113.146-88.697 149.535c-48.329 36.389-108.597 51.74-168.298 43.212-59.132-8.529-113.715-40.937-149.535-88.697-10.803-14.214-27.86-22.743-45.486-22.743v0c-18.194 0-34.683 8.529-45.486 22.743-18.763 25.586-42.074 46.054-69.934 61.974-27.292 15.92-57.426 25.586-88.697 28.429-31.272 3.411-62.543 0-92.677-9.097-30.134-9.666-57.426-25.017-81.306-45.486-23.88-21.037-42.643-46.054-56.289-74.483s-20.469-59.132-21.606-90.972c-0.569-31.84 4.549-62.543 16.489-91.54s29.566-55.152 52.309-77.326l386.63-382.65 17.057 17.057c22.174 22.174 57.994 22.174 80.169 0s22.174-57.994 0-80.169l-56.857-56.857c-11.371-11.371-25.586-16.489-40.369-16.489zM853.428-7.143c-31.272 0-56.857 25.586-56.857 56.857v113.715h-113.715c-31.272 0-56.857 25.586-56.857 56.857s25.586 56.857 56.857 56.857h113.715v113.715c0 31.272 25.586 56.857 56.857 56.857s56.857-25.586 56.857-56.857v-113.715h113.715c31.272 0 56.857-25.586 56.857-56.857s-25.586-56.857-56.857-56.857h-113.715v-113.715c0-31.272-25.586-56.857-56.857-56.857z" />
<glyph unicode="&#xe902;" glyph-name="outlline-timelapse" d="M729.088 665.088c-28.672 28.672-62.464 51.2-99.328 66.56-37.376 15.36-77.312 23.552-117.76 23.552v-307.2l-217.088-217.088c119.808-119.808 314.368-119.808 434.688 0 28.672 28.672 51.2 62.464 66.56 99.84s23.552 77.312 23.040 117.76c0 40.448-8.192 80.384-23.552 117.248s-38.4 71.168-66.56 99.328zM512 960c-282.624 0-512-229.376-512-512s229.376-512 512-512 512 229.376 512 512-229.376 512-512 512zM512 38.4c-226.304 0-409.6 183.296-409.6 409.6s183.296 409.6 409.6 409.6 409.6-183.296 409.6-409.6-183.296-409.6-409.6-409.6z" />
<glyph unicode="&#xe903;" glyph-name="address-card" d="M796.16 64h-593.92c-61.44 0-95.232 0-125.44 15.36-26.624 13.824-48.128 34.816-61.44 61.44-15.36 30.208-15.36 64-15.36 125.44v389.12c0 61.44 0 95.232 15.36 125.44 13.824 26.624 34.816 47.616 61.44 61.44 30.208 15.36 64 15.36 125.44 15.36h593.92c61.44 0 95.232 0 125.44-15.36 26.624-13.824 48.128-34.816 61.44-61.44 15.36-30.208 15.36-64 15.36-125.44v-389.12c0-61.44 0-95.232-15.36-125.44-13.824-26.624-34.816-48.128-61.44-61.44-30.208-15.36-64-15.36-125.44-15.36zM202.24 780.8c-49.664 0-76.8 0-90.624-7.168-12.288-6.144-21.504-15.872-28.16-28.16-7.168-13.824-7.168-40.96-7.168-90.624v-389.12c0-49.664 0-76.8 7.168-90.624 6.144-12.288 15.872-21.504 28.16-28.16 13.824-7.168 40.96-7.168 90.624-7.168h593.92c49.664 0 76.8 0 90.624 7.168 12.288 6.144 21.504 15.872 28.16 28.16 7.168 13.824 7.168 40.96 7.168 90.624v389.632c0 49.664 0 76.8-7.168 90.624-6.144 12.288-15.872 22.016-28.16 28.16-13.824 7.168-40.96 7.168-90.624 7.168h-593.92zM499.2 243.2c-17.408 0-32.768 11.776-37.376 29.184-10.752 42.496-59.392 73.216-116.224 73.216s-105.984-30.72-116.224-73.216c-5.12-20.48-25.6-33.28-46.592-28.16-20.48 5.12-33.28 26.112-28.16 46.592 18.944 76.288 99.328 131.584 190.976 131.584s172.032-55.296 190.976-131.584c5.12-20.48-7.68-41.472-28.16-46.592-3.072-1.024-6.144-1.024-9.216-1.024zM806.4 422.4h-204.8c-20.992 0-38.4 17.408-38.4 38.4s17.408 38.4 38.4 38.4h204.8c20.992 0 38.4-17.408 38.4-38.4s-17.408-38.4-38.4-38.4zM345.6 499.2c-49.152 0-89.6 40.448-89.6 89.6s40.448 89.6 89.6 89.6 89.6-40.448 89.6-89.6-40.448-89.6-89.6-89.6zM345.6 601.6c-7.168 0-12.8-5.632-12.8-12.8 0-14.336 25.6-14.336 25.6 0 0 7.168-5.632 12.8-12.8 12.8zM806.4 576h-204.8c-20.992 0-38.4 17.408-38.4 38.4s17.408 38.4 38.4 38.4h204.8c20.992 0 38.4-17.408 38.4-38.4s-17.408-38.4-38.4-38.4z" />
<glyph unicode="&#xe904;" glyph-name="award" d="M512 908.8l25.088 44.544c-15.36 8.704-34.304 8.704-50.176 0l25.088-44.544zM583.68 868.864l-25.088-44.544c7.68-4.096 15.872-6.656 24.576-6.656v51.2zM665.6 867.84l44.032 26.112c-9.216 15.36-25.6 24.576-43.52 25.088v-51.2zM707.584 797.184l-44.032-26.112c4.608-7.168 10.752-13.312 17.92-17.92l26.112 44.032zM778.24 755.2h51.2c0 18.432-9.728 34.816-25.088 44.032l-26.112-44.032zM779.264 673.28h-51.2c0-9.216 2.56-17.408 6.656-25.088l44.544 25.088zM819.2 601.6l44.544-25.088c8.704 15.36 8.704 34.304 0 50.176l-44.544-25.088zM779.264 529.92l-44.544 25.088c-4.096-7.68-6.656-15.872-6.656-24.576h51.2zM778.24 448l26.112-44.032c15.36 9.216 24.576 25.6 25.088 43.52h-51.2zM707.584 406.016l-26.112 44.032c-7.168-4.608-13.312-10.752-17.92-17.92l44.032-26.112zM665.6 335.36v-51.2c18.432 0 34.816 9.728 44.032 25.088l-44.032 26.112zM583.68 334.336v51.2c-9.216 0-17.408-2.56-25.088-6.656l25.088-44.544zM512 294.4l-25.088-44.544c15.36-8.704 34.304-8.704 50.176 0l-25.088 44.544zM440.32 334.336l25.088 44.544c-7.68 4.096-15.872 6.656-24.576 6.656v-51.2zM358.4 335.36l-44.032-26.112c9.216-15.36 25.6-24.576 43.52-25.088v51.2zM316.416 406.016l44.032 26.112c-4.608 7.168-10.752 13.312-17.92 17.92l-26.112-44.032zM245.76 448h-51.2c0-18.432 9.728-34.816 25.088-44.032l26.112 44.032zM244.736 529.92h51.2c0 9.216-2.56 17.408-6.656 25.088l-44.544-25.088zM204.8 601.6l-44.544 25.088c-8.704-15.36-8.704-34.304 0-50.176l44.544 25.088zM244.736 673.28l44.544-25.088c4.096 7.68 6.656 15.872 6.656 24.576h-51.2zM245.76 755.2l-26.112 44.032c-15.36-9.216-24.576-25.6-25.088-43.52h51.2zM316.416 797.184l26.112-44.032c7.168 4.608 13.312 10.752 17.92 17.92l-44.032 26.112zM358.4 867.84v51.2c-18.432 0-34.816-9.728-44.032-25.088l44.032-26.112zM440.32 868.864v-51.2c9.216 0 17.408 2.56 25.088 6.656l-25.088 44.544zM332.8-12.8h-51.2c0-18.432 9.728-35.328 25.6-44.032 15.872-9.216 35.328-9.216 51.2 0l-25.6 44.544zM512 89.6l25.6 44.544c-15.872 9.216-34.816 9.216-50.688 0l25.6-44.544zM691.2-12.8l-25.6-44.544c15.872-9.216 35.328-9.216 51.2 0s25.6 26.112 25.6 44.032h-51.2zM486.912 864.256l71.68-39.936 50.176 89.088-71.68 39.936-50.176-89.088zM582.656 817.664l81.92-1.024 1.024 102.4-81.92 1.024-1.024-102.4zM621.568 841.728l41.984-70.656 88.064 52.224-41.984 70.656-88.064-52.224zM681.472 753.152l70.656-41.984 52.224 88.064-70.656 41.984-52.224-88.064zM727.040 754.688l1.024-81.92 102.4 1.024-1.024 81.92-102.4-1.024zM734.72 648.192l39.936-71.68 89.088 50.176-39.936 71.68-89.088-50.176zM774.656 626.688l-39.936-71.68 89.088-50.176 39.936 71.68-89.088 50.176zM728.064 530.944l-1.024-81.92 102.4-1.024 1.024 81.92-102.4 1.024zM665.088 387.072l-81.92-1.024 1.024-102.4 81.92 1.024-1.024 102.4zM441.344 386.048l-81.92 1.024-1.024-102.4 81.92-1.024 1.024 102.4zM297.472 449.024l-1.024 81.92-102.4-1.024 1.024-81.92 102.4 1.024zM289.792 555.52l-39.936 71.68-89.088-50.176 39.936-71.68 89.088 50.176zM249.856 577.024l39.936 71.68-89.088 50.176-39.936-71.68 89.088-50.176zM296.448 672.768l1.024 81.92-102.4 1.024-1.024-81.92 102.4-1.024zM272.384 711.68l70.656 41.984-52.224 88.064-70.656-41.984 52.224-88.064zM360.96 771.584l41.984 70.656-88.064 52.224-41.984-70.656 88.064-52.224zM359.424 817.152l81.92 1.024-1.024 102.4-81.92-1.024 1.024-102.4zM465.92 824.832l71.68 39.936-50.176 89.088-71.68-39.936 50.176-89.088zM752.128 493.056l-70.656-41.984 52.224-88.064 70.656 41.984-52.224 88.064zM343.040 451.072l-70.656 41.984-52.224-88.064 70.656-41.984 52.224 88.064zM559.104 379.904l-71.68-39.936 50.176-89.088 71.68 39.936-50.176 89.088zM537.6 339.968l-71.68 39.936-50.176-89.088 71.68-39.936 50.176 89.088zM358.912-56.32l179.2 102.4-50.688 89.088-179.2-102.4 50.688-89.088zM487.424 46.080l179.2-102.4 50.688 89.088-179.2 102.4-50.688-89.088zM743.424-11.776v391.68h-102.4v-391.68h102.4zM664.576 433.152l-16.384-27.648 88.064-52.224 16.384 27.648-88.064 52.224zM648.192 405.504l-25.6-43.008 88.064-52.224 25.6 43.008-88.064 52.224zM282.624 379.392v-391.68h102.4v391.68h-102.4zM403.456 362.496l-25.6 43.008-88.064-52.224 25.6-43.008 88.064 52.224zM377.856 405.504l-16.384 27.648-88.064-52.224 16.384-27.648 88.064 52.224zM564.224 602.112c0-28.16-23.040-51.2-51.2-51.2v-102.4c84.992 0 153.6 68.608 153.6 153.6h-102.4zM513.024 550.912c-28.16 0-51.2 23.040-51.2 51.2h-102.4c0-84.992 68.608-153.6 153.6-153.6v102.4zM461.824 602.112c0 28.16 23.040 51.2 51.2 51.2v102.4c-84.992 0-153.6-68.608-153.6-153.6h102.4zM513.024 653.312c28.16 0 51.2-23.040 51.2-51.2h102.4c0 84.992-68.608 153.6-153.6 153.6v-102.4z" />
<glyph unicode="&#xe905;" glyph-name="bank-card" d="M961.195 527.872c-27.989 0-51.2 23.211-51.2 51.2v176.128h-807.595v-176.128c0-27.989-23.211-51.2-51.2-51.2s-51.2 23.211-51.2 51.2v227.328c0 27.989 23.211 51.2 51.2 51.2h909.995c27.989 0 51.2-23.211 51.2-51.2v-227.328c0-27.989-23.211-51.2-51.2-51.2zM961.195 26.795h-909.995c-27.989 0-51.2 23.211-51.2 51.2v500.395c0 27.989 23.211 51.2 51.2 51.2h909.995c27.989 0 51.2-23.211 51.2-51.2v-500.395c0-27.989-23.211-51.2-51.2-51.2zM102.4 129.195h807.595v397.995h-807.595v-397.995zM278.528 277.333h-45.739c-27.989 0-51.2 23.211-51.2 51.2s23.211 51.2 51.2 51.2h45.739c27.989 0 51.2-23.211 51.2-51.2s-23.211-51.2-51.2-51.2zM460.8 277.333h-45.739c-27.989 0-51.2 23.211-51.2 51.2s23.211 51.2 51.2 51.2h45.739c27.989 0 51.2-23.211 51.2-51.2s-23.211-51.2-51.2-51.2zM643.072 277.333h-45.739c-27.989 0-51.2 23.211-51.2 51.2s23.211 51.2 51.2 51.2h45.739c27.989 0 51.2-23.211 51.2-51.2s-23.211-51.2-51.2-51.2z" />
<glyph unicode="&#xe906;" glyph-name="briefcase" d="M727.040-64h-430.080c-94.208 0-141.312 0-185.344 22.528-38.912 19.968-69.632 50.688-89.6 89.6-22.528 44.032-22.528 91.136-22.528 185.344v225.28c0 94.208 0 141.312 22.528 185.344 19.968 38.912 50.688 69.632 89.6 89.6 36.864 18.944 76.288 21.504 144.384 22.016v0c0 52.736 0 81.92 11.776 110.080 15.872 37.888 45.056 67.584 82.944 82.944 28.16 11.776 57.344 11.776 110.080 11.776h102.4c52.736 0 81.92 0 110.080-11.776 37.888-15.872 67.584-45.056 82.944-82.944 11.776-28.16 11.776-57.344 11.776-110.080v0c67.584-0.512 107.008-3.584 144.384-22.528 38.912-19.968 69.632-50.688 89.6-89.6 22.528-44.032 22.528-91.136 22.528-185.344v-225.28c0-94.208 0-141.312-22.528-185.344-19.456-38.912-50.688-69.632-89.6-89.6-44.032-22.528-91.136-22.528-185.344-22.528zM102.4 396.8v-163.84c0-75.264 0-116.736 11.264-138.752 9.728-19.456 25.6-34.816 44.544-44.544 22.016-11.264 63.488-11.264 138.752-11.264h430.080c75.264 0 116.736 0 138.752 11.264 19.456 9.728 34.816 25.6 44.544 44.544 11.264 22.016 11.264 63.488 11.264 138.752v163.84h-102.4v-51.2c0-28.16-23.040-51.2-51.2-51.2s-51.2 23.040-51.2 51.2v51.2h-409.6v-51.2c0-28.16-23.040-51.2-51.2-51.2s-51.2 23.040-51.2 51.2v51.2h-102.4zM768 499.2h153.6c0 50.176-2.048 79.872-11.264 97.792-9.728 19.456-25.6 34.816-44.544 44.544-22.016 11.264-63.488 11.264-138.752 11.264h-430.080c-75.264 0-116.736 0-138.752-11.264-19.456-9.728-34.816-25.6-44.544-44.544-8.704-17.408-10.752-47.616-11.264-97.792h665.6zM358.4 755.2h307.2c0 36.864 0 61.44-4.096 70.656-5.12 12.8-14.848 22.528-27.648 27.648-9.216 4.096-33.792 4.096-70.656 4.096h-102.4c-36.864 0-61.44 0-70.656-4.096-12.8-5.12-22.528-14.848-27.648-27.648-4.096-9.216-4.096-33.792-4.096-70.656z" />
<glyph unicode="&#xe907;" glyph-name="calendar1" d="M813.789-64h-603.577c-62.959 0-97.821 0-129.561 16.13-28.098 14.569-50.472 36.943-64.52 64.52-16.13 31.74-16.13 66.602-16.13 129.561v499.512c0 62.959 0 97.821 16.13 129.561 14.049 28.098 36.423 50.472 64.52 64.52 31.22 16.13 65.561 16.13 127.48 16.13v60.358c0 23.935 19.772 43.707 43.707 43.707s43.707-19.772 43.707-43.707v-60.358h432.911v60.358c0 23.935 19.772 43.707 43.707 43.707s43.707-19.772 43.707-43.707v-60.358c61.919 0 96.26 0 127.48-16.13 28.098-14.049 50.472-36.423 64.52-64.52 16.13-31.74 16.13-66.602 16.13-129.561v-499.512c0-62.959 0-97.821-16.13-129.561-14.569-28.098-36.423-50.472-64.52-64.52-31.74-16.13-66.602-16.13-129.561-16.13zM87.415 508.358v-362.146c0-47.87 0-77.008 6.764-90.016 5.724-11.447 15.089-20.293 26.537-26.537 13.008-6.244 41.626-6.244 90.016-6.244h603.577c47.87 0 77.008 0 90.016 6.764 11.447 5.724 20.293 15.089 26.537 26.537 6.244 13.008 6.244 41.626 6.244 89.496v362.146h-849.691zM87.415 595.772h849.171v49.951c0 47.87 0 77.008-6.764 90.016-5.724 11.447-15.089 20.293-26.537 26.537-13.008 6.764-41.626 6.764-90.016 6.764h-603.057c-47.87 0-77.008 0-90.016-6.764-11.447-5.724-20.293-15.089-26.537-26.537-6.764-13.008-6.764-41.626-6.764-90.016v-49.951z" />
<glyph unicode="&#xe908;" glyph-name="calendar-check" d="M808.96-64h-593.92c-63.488 0-98.304 0-131.072 16.896-29.184 14.848-52.224 37.888-67.072 67.072-16.896 32.768-16.896 68.096-16.896 131.072v491.52c0 63.488 0 98.304 16.896 131.072 14.848 29.184 37.888 52.224 67.072 67.072 31.232 15.872 64 16.896 120.832 16.896v51.2c0 28.16 23.040 51.2 51.2 51.2s51.2-23.040 51.2-51.2v-51.2h409.6v51.2c0 28.16 23.040 51.2 51.2 51.2s51.2-23.040 51.2-51.2v-51.2c56.832 0 90.112-1.024 120.832-16.896 29.184-14.848 52.224-37.888 67.072-67.072 16.896-32.768 16.896-67.584 16.896-131.072v-491.52c0-63.488 0-98.304-16.896-131.072-14.848-29.184-37.888-52.224-67.072-67.072-32.768-16.896-68.096-16.896-131.072-16.896zM102.4 550.4v-399.36c0-44.544 0-73.728 5.632-84.48 5.12-9.728 12.8-17.408 22.528-22.528 10.752-5.632 40.448-5.632 84.48-5.632h593.92c44.544 0 73.728 0 84.48 5.632 9.728 5.12 17.408 12.8 22.528 22.528 5.632 10.752 5.632 40.448 5.632 84.48v399.36h-819.2zM102.4 652.8h819.2c0 38.912 0 64.512-5.632 74.24-5.12 9.728-12.8 17.408-22.528 22.528-10.752 5.632-40.448 5.632-84.48 5.632h-593.92c-44.544 0-73.728 0-84.992-5.632-9.728-5.12-17.408-12.8-22.528-22.528-5.12-10.24-5.632-35.84-5.632-74.24zM460.8 140.8c-13.312 0-26.112 5.12-36.352 14.848l-102.4 102.4c-19.968 19.968-19.968 52.224 0 72.192s52.224 19.968 72.192 0l66.048-66.048 168.448 168.448c19.968 19.968 52.224 19.968 72.192 0s19.968-52.224 0-72.192l-204.8-204.8c-10.24-10.24-23.040-14.848-36.352-14.848z" />
<glyph unicode="&#xe909;" glyph-name="calendar-circle-check" d="M744.727-17.455c-82.385 0-156.858 35.84-208.058 93.091h-341.178c-57.716 0-89.367 0-119.156 15.36-26.531 13.498-47.476 34.444-60.975 60.975-15.36 29.789-15.36 61.905-15.36 119.156v353.745c0 57.716 0 89.367 15.36 119.156 13.498 26.531 34.444 47.476 60.975 60.975 18.618 9.309 37.702 13.033 63.302 14.429v47.476c0 25.6 20.945 46.545 46.545 46.545s46.545-20.945 46.545-46.545v-46.545h325.818v46.545c0 25.6 20.945 46.545 46.545 46.545s46.545-20.945 46.545-46.545v-47.476c25.6-1.396 44.684-5.12 63.302-14.429 26.531-13.498 47.476-34.444 60.975-60.975 15.36-29.789 15.36-61.44 15.36-119.156v-87.505c131.724-22.342 232.727-137.309 232.727-275.549 0-154.065-125.207-279.273-279.273-279.273zM744.727 448c-102.865 0-186.182-83.316-186.182-186.182s83.316-186.182 186.182-186.182 186.182 83.316 186.182 186.182-83.316 186.182-186.182 186.182zM93.091 541.091v-269.964c0-40.495 0-67.025 5.12-76.8 4.655-8.844 11.636-15.825 20.48-20.48 9.775-5.12 36.771-5.12 76.8-5.12h285.789c-10.24 29.324-15.825 60.509-15.825 93.091 0 138.24 101.004 253.207 232.727 275.549v3.724h-605.091zM93.091 634.182h605.091c0 35.375 0 58.647-5.12 67.491-4.655 8.844-11.636 15.825-20.48 20.48-9.775 5.12-36.771 5.12-76.8 5.12h-400.291c-40.495 0-67.025 0-77.265-5.12-8.844-4.655-15.825-11.636-20.48-20.48-4.655-9.309-5.12-32.582-5.12-67.491zM711.215 137.542c-11.636 0-22.807 4.189-31.185 12.102l-59.578 54.458c-19.084 17.222-20.48 46.545-2.793 65.629 17.222 19.084 46.545 20.015 65.629 2.793l24.204-22.342 95.418 111.244c16.756 19.549 46.080 21.876 65.629 5.12s21.876-46.080 5.12-65.629l-126.604-147.549c-8.378-9.775-20.015-15.36-32.582-16.291-0.931 0-1.862 0-2.793 0z" />
<glyph unicode="&#xe90a;" glyph-name="calendar-circle-plus" d="M744.727-17.455c-82.385 0-156.858 35.84-208.058 93.091h-341.178c-57.716 0-89.367 0-119.156 15.36-26.531 13.498-47.476 34.444-60.975 60.975-15.36 29.789-15.36 61.905-15.36 119.156v353.745c0 57.716 0 89.367 15.36 119.156 13.498 26.531 34.444 47.476 60.975 60.975 18.618 9.309 37.702 13.033 63.302 14.429v47.476c0 25.6 20.945 46.545 46.545 46.545s46.545-20.945 46.545-46.545v-46.545h325.818v46.545c0 25.6 20.945 46.545 46.545 46.545s46.545-20.945 46.545-46.545v-47.476c25.6-1.396 44.684-5.12 63.302-14.429 26.531-13.498 47.476-34.444 60.975-60.975 15.36-29.789 15.36-61.44 15.36-119.156v-87.505c131.724-22.342 232.727-137.309 232.727-275.549 0-154.065-125.207-279.273-279.273-279.273zM744.727 448c-102.865 0-186.182-83.316-186.182-186.182s83.316-186.182 186.182-186.182 186.182 83.316 186.182 186.182-83.316 186.182-186.182 186.182zM93.091 541.091v-269.964c0-40.495 0-67.025 5.12-76.8 4.655-8.844 11.636-15.825 20.48-20.48 9.775-5.12 36.771-5.12 76.8-5.12h285.789c-10.24 29.324-15.825 60.509-15.825 93.091 0 138.24 101.004 253.207 232.727 275.549v3.724h-605.091zM93.091 634.182h605.091c0 35.375 0 58.647-5.12 67.491-4.655 8.844-11.636 15.825-20.48 20.48-9.775 5.12-36.771 5.12-76.8 5.12h-400.291c-40.495 0-67.025 0-77.265-5.12-8.844-4.655-15.825-11.636-20.48-20.48-4.655-9.309-5.12-32.582-5.12-67.491zM744.727 122.182c-25.6 0-46.545 20.945-46.545 46.545v46.545h-46.545c-25.6 0-46.545 20.945-46.545 46.545s20.945 46.545 46.545 46.545h46.545v46.545c0 25.6 20.945 46.545 46.545 46.545s46.545-20.945 46.545-46.545v-46.545h46.545c25.6 0 46.545-20.945 46.545-46.545s-20.945-46.545-46.545-46.545h-46.545v-46.545c0-25.6-20.945-46.545-46.545-46.545z" />
<glyph unicode="&#xe90b;" glyph-name="calendar-circle-warning" d="M744.727-17.455c-82.385 0-156.858 35.84-208.058 93.091h-341.178c-57.716 0-89.367 0-119.156 15.36-26.531 13.498-47.476 34.444-60.975 60.975-15.36 29.789-15.36 61.905-15.36 119.156v353.745c0 57.716 0 89.367 15.36 119.156 13.498 26.531 34.444 47.476 60.975 60.975 18.618 9.309 37.702 13.033 63.302 14.429v47.476c0 25.6 20.945 46.545 46.545 46.545s46.545-20.945 46.545-46.545v-46.545h325.818v46.545c0 25.6 20.945 46.545 46.545 46.545s46.545-20.945 46.545-46.545v-47.476c25.6-1.396 44.684-5.12 63.302-14.429 26.531-13.498 47.476-34.444 60.975-60.975 15.36-29.789 15.36-61.44 15.36-119.156v-87.505c131.724-22.342 232.727-137.309 232.727-275.549 0-154.065-125.207-279.273-279.273-279.273zM744.727 448c-102.865 0-186.182-83.316-186.182-186.182s83.316-186.182 186.182-186.182 186.182 83.316 186.182 186.182-83.316 186.182-186.182 186.182zM93.091 541.091v-269.964c0-40.495 0-67.025 5.12-76.8 4.655-8.844 11.636-15.825 20.48-20.48 9.775-5.12 36.771-5.12 76.8-5.12h285.789c-10.24 29.324-15.825 60.509-15.825 93.091 0 138.24 101.004 253.207 232.727 275.549v3.724h-605.091zM93.091 634.182h605.091c0 35.375 0 58.647-5.12 67.491-4.655 8.844-11.636 15.825-20.48 20.48-9.775 5.12-36.771 5.12-76.8 5.12h-400.291c-40.495 0-67.025 0-77.265-5.12-8.844-4.655-15.825-11.636-20.48-20.48-4.655-9.309-5.12-32.582-5.12-67.491zM745.193 122.182c-25.6 0-46.545 20.945-46.545 46.545s20.48 46.545 46.545 46.545v0c25.6 0 46.545-20.945 46.545-46.545s-20.945-46.545-46.545-46.545zM745.193 238.545c-25.6 0-46.545 20.945-46.545 46.545v69.818c0 25.6 20.945 46.545 46.545 46.545s46.545-20.945 46.545-46.545v-69.818c0-25.6-20.945-46.545-46.545-46.545z" />
<glyph unicode="&#xe90c;" glyph-name="calendarday" d="M808.96-64h-593.92c-63.488 0-98.304 0-131.072 16.896-29.184 14.848-52.224 37.888-67.072 67.072-16.896 32.768-16.896 68.096-16.896 131.072v491.52c0 63.488 0 98.304 16.896 131.072 14.848 29.184 37.888 52.224 67.072 67.072 31.232 15.872 64 16.896 120.832 16.896v51.2c0 28.16 23.040 51.2 51.2 51.2s51.2-23.040 51.2-51.2v-51.2h409.6v51.2c0 28.16 23.040 51.2 51.2 51.2s51.2-23.040 51.2-51.2v-51.2c56.832 0 90.112-1.024 120.832-16.896 29.184-14.848 52.224-37.888 67.072-67.072 16.896-32.768 16.896-67.584 16.896-131.072v-491.52c0-63.488 0-98.304-16.896-131.072-14.848-29.184-37.888-52.224-67.072-67.072-32.768-16.896-68.096-16.896-131.072-16.896zM102.4 550.4v-399.36c0-44.544 0-73.728 5.632-84.48 5.12-9.728 12.8-17.408 22.528-22.528 10.752-5.632 40.448-5.632 84.48-5.632h593.92c44.544 0 73.728 0 84.48 5.632 9.728 5.12 17.408 12.8 22.528 22.528 5.632 10.752 5.632 40.448 5.632 84.48v399.36h-819.2zM102.4 652.8h819.2c0 38.912 0 64.512-5.632 74.24-5.12 9.728-12.8 17.408-22.528 22.528-10.752 5.632-40.448 5.632-84.48 5.632h-593.92c-44.544 0-73.728 0-84.992-5.632-9.728-5.12-17.408-12.8-22.528-22.528-5.12-10.24-5.632-35.84-5.632-74.24zM819.2 140.8h-102.4c-28.16 0-51.2 23.040-51.2 51.2s23.040 51.2 51.2 51.2h102.4c28.16 0 51.2-23.040 51.2-51.2s-23.040-51.2-51.2-51.2zM563.2 140.8h-102.4c-28.16 0-51.2 23.040-51.2 51.2s23.040 51.2 51.2 51.2h102.4c28.16 0 51.2-23.040 51.2-51.2s-23.040-51.2-51.2-51.2zM307.2 140.8h-102.4c-28.16 0-51.2 23.040-51.2 51.2s23.040 51.2 51.2 51.2h102.4c28.16 0 51.2-23.040 51.2-51.2s-23.040-51.2-51.2-51.2zM819.2 345.6h-102.4c-28.16 0-51.2 23.040-51.2 51.2s23.040 51.2 51.2 51.2h102.4c28.16 0 51.2-23.040 51.2-51.2s-23.040-51.2-51.2-51.2zM563.2 345.6h-102.4c-28.16 0-51.2 23.040-51.2 51.2s23.040 51.2 51.2 51.2h102.4c28.16 0 51.2-23.040 51.2-51.2s-23.040-51.2-51.2-51.2zM307.2 345.6h-102.4c-28.16 0-51.2 23.040-51.2 51.2s23.040 51.2 51.2 51.2h102.4c28.16 0 51.2-23.040 51.2-51.2s-23.040-51.2-51.2-51.2z" />
<glyph unicode="&#xe90d;" glyph-name="calendar-day" d="M808.96-64h-593.92c-63.488 0-98.304 0-131.072 16.896-29.184 14.848-52.224 37.888-67.072 67.072-16.896 32.768-16.896 68.096-16.896 131.072v491.52c0 63.488 0 98.304 16.896 131.072 14.848 29.184 37.888 52.224 67.072 67.072 31.232 15.872 64 16.896 120.832 16.896v51.2c0 28.16 23.040 51.2 51.2 51.2s51.2-23.040 51.2-51.2v-51.2h409.6v51.2c0 28.16 23.040 51.2 51.2 51.2s51.2-23.040 51.2-51.2v-51.2c56.832 0 90.112-1.024 120.832-16.896 29.184-14.848 52.224-37.888 67.072-67.072 16.896-32.768 16.896-67.584 16.896-131.072v-491.52c0-63.488 0-98.304-16.896-131.072-14.848-29.184-37.888-52.224-67.072-67.072-32.768-16.896-68.096-16.896-131.072-16.896zM102.4 550.4v-399.36c0-44.544 0-73.728 5.632-84.48 5.12-9.728 12.8-17.408 22.528-22.528 10.752-5.632 40.448-5.632 84.48-5.632h593.92c44.544 0 73.728 0 84.48 5.632 9.728 5.12 17.408 12.8 22.528 22.528 5.632 10.752 5.632 40.448 5.632 84.48v399.36h-819.2zM102.4 652.8h819.2c0 38.912 0 64.512-5.632 74.24-5.12 9.728-12.8 17.408-22.528 22.528-10.752 5.632-40.448 5.632-84.48 5.632h-593.92c-44.544 0-73.728 0-84.992-5.632-9.728-5.12-17.408-12.8-22.528-22.528-5.12-10.24-5.632-35.84-5.632-74.24zM409.6 192h-204.8c-28.16 0-51.2 23.040-51.2 51.2v204.8c0 28.16 23.040 51.2 51.2 51.2h204.8c28.16 0 51.2-23.040 51.2-51.2v-204.8c0-28.16-23.040-51.2-51.2-51.2zM256 294.4h102.4v102.4h-102.4v-102.4z" />
<glyph unicode="&#xe90e;" glyph-name="calendar-warning" d="M808.96-64h-593.92c-63.488 0-98.304 0-131.072 16.896-29.184 14.848-52.224 37.888-67.072 67.072-16.896 32.768-16.896 68.096-16.896 131.072v491.52c0 63.488 0 98.304 16.896 131.072 14.848 29.184 37.888 52.224 67.072 67.072 31.232 15.872 64 16.896 120.832 16.896v51.2c0 28.16 23.040 51.2 51.2 51.2s51.2-23.040 51.2-51.2v-51.2h409.6v51.2c0 28.16 23.040 51.2 51.2 51.2s51.2-23.040 51.2-51.2v-51.2c56.832 0 89.6-1.024 120.832-16.896 29.184-14.848 52.224-37.888 67.072-67.072 16.896-32.768 16.896-67.584 16.896-131.072v-491.52c0-63.488 0-98.304-16.896-131.072-14.848-29.184-37.888-52.224-67.072-67.072-32.768-16.896-67.584-16.896-131.072-16.896zM102.4 550.4v-399.36c0-44.544 0-73.728 5.632-84.48 5.12-9.728 12.8-17.408 22.528-22.528 10.752-5.632 40.448-5.632 84.48-5.632h593.92c44.544 0 73.728 0 84.48 5.632 9.728 5.12 17.408 12.8 22.528 22.528 5.632 10.752 5.632 40.448 5.632 84.48v399.36h-819.2zM102.4 652.8h819.2c0 38.912 0 64.512-5.632 74.24-5.12 9.728-12.8 17.408-22.528 22.528-10.752 5.632-40.448 5.632-84.48 5.632h-593.92c-44.544 0-73.728 0-84.992-5.632-9.728-5.12-17.408-12.8-22.528-22.528-5.12-10.24-5.632-35.84-5.632-74.24zM512.512 89.6c-28.16 0-51.2 23.040-51.2 51.2s22.528 51.2 50.688 51.2h0.512c28.16 0 51.2-23.040 51.2-51.2s-23.040-51.2-51.2-51.2zM512 243.2c-28.16 0-51.2 23.040-51.2 51.2v153.6c0 28.16 23.040 51.2 51.2 51.2s51.2-23.040 51.2-51.2v-153.6c0-28.16-23.040-51.2-51.2-51.2z" />
<glyph unicode="&#xe90f;" glyph-name="chart-line-up" d="M578.316 204.19c-12.19 0-24.869 4.876-34.133 14.141l-230.644 226.255-230.644-226.255c-19.017-19.017-50.225-18.53-68.754 0.488-19.017 19.017-18.53 50.225 0.488 68.754l264.777 260.389c19.017 18.53 49.25 18.53 68.267 0l230.644-226.255 277.943 273.067h-145.31c-26.819 0-48.762 21.943-48.762 48.762s21.943 48.762 48.762 48.762h264.777c6.339 0 12.678-1.463 18.53-3.413 5.851-2.438 11.703-5.851 16.091-11.215 4.389-4.876 8.29-10.24 10.24-15.604 2.438-5.851 3.413-11.703 3.413-18.53v-259.901c0-26.819-21.943-48.762-48.762-48.762s-48.762 21.943-48.762 48.762v143.848l-314.027-308.663c-9.265-9.265-21.943-14.141-34.133-14.141z" />
<glyph unicode="&#xe910;" glyph-name="clipboard-text" d="M706.56-64h-389.12c-63.488 0-98.304 0-131.072 16.896-29.184 14.848-52.224 37.888-67.072 67.072-16.896 32.768-16.896 68.096-16.896 131.072v491.52c0 63.488 0 98.304 16.896 131.072 14.848 29.184 37.888 52.224 67.072 67.072 22.016 11.264 45.568 14.848 74.24 15.872 6.144 23.552 18.432 45.056 35.84 62.464 26.112 26.112 60.928 40.448 97.792 40.448h235.008c36.864 0 71.68-14.336 98.304-40.448 17.408-17.408 29.696-38.912 35.84-62.464 28.672-1.024 52.736-5.12 74.24-15.872 29.184-14.848 52.224-37.888 67.072-67.072 16.896-32.768 16.896-67.584 16.896-131.072v-491.52c0-63.488 0-98.304-16.896-131.072-14.848-29.184-37.888-52.224-67.072-67.072-32.768-16.896-67.584-16.896-131.072-16.896zM256 754.176c-10.752-1.024-18.432-2.048-23.040-4.608-9.728-5.12-17.408-12.8-22.528-22.528-5.632-10.752-5.632-40.448-5.632-84.48v-491.52c0-44.544 0-73.728 5.632-84.48 5.12-9.728 12.8-17.408 22.528-22.528 10.752-5.632 40.448-5.632 84.48-5.632h389.12c44.544 0 73.728 0 84.48 5.632 9.728 5.12 17.408 12.8 22.528 22.528 5.632 10.752 5.632 40.448 5.632 84.48v491.52c0 44.544 0 73.728-5.632 84.48-5.12 9.728-12.8 17.408-22.528 22.528-4.608 2.56-12.288 3.584-23.040 4.608v-50.176c0-28.16-23.040-51.2-51.2-51.2h-409.6c-28.16 0-51.2 23.040-51.2 51.2v50.176zM358.4 755.2h307.2v66.048c0 9.728-4.096 18.944-10.752 25.6s-15.872 10.752-25.6 10.752h-235.008c-9.728 0-18.944-3.584-25.6-10.752-6.656-6.656-10.752-15.872-10.752-25.6v-66.048zM512 243.2h-153.6c-28.16 0-51.2 23.040-51.2 51.2s23.040 51.2 51.2 51.2h153.6c28.16 0 51.2-23.040 51.2-51.2s-23.040-51.2-51.2-51.2zM665.6 448h-307.2c-28.16 0-51.2 23.040-51.2 51.2s23.040 51.2 51.2 51.2h307.2c28.16 0 51.2-23.040 51.2-51.2s-23.040-51.2-51.2-51.2z" />
<glyph unicode="&#xe911;" glyph-name="clock-chek" d="M512-38.4c-253.952 0-460.8 206.848-460.8 460.8s206.848 460.8 460.8 460.8 460.8-206.848 460.8-460.8-206.848-460.8-460.8-460.8zM512 780.8c-197.632 0-358.4-160.768-358.4-358.4s160.768-358.4 358.4-358.4 358.4 160.768 358.4 358.4-160.768 358.4-358.4 358.4zM460.8 268.8c-13.312 0-26.112 5.12-36.352 14.848l-102.4 102.4c-19.968 19.968-19.968 52.224 0 72.192s52.224 19.968 72.192 0l66.048-66.048 168.448 168.448c19.968 19.968 52.224 19.968 72.192 0s19.968-52.224 0-72.192l-204.8-204.8c-10.24-10.24-23.040-14.848-36.352-14.848zM972.8 729.6c-13.312 0-26.112 5.12-36.352 14.848l-102.4 102.4c-19.968 19.968-19.968 52.224 0 72.192s52.224 19.968 72.192 0l102.4-102.4c19.968-19.968 19.968-52.224 0-72.192-10.24-10.24-23.040-14.848-36.352-14.848zM51.2 729.6c-13.312 0-26.112 5.12-36.352 14.848-19.968 19.968-19.968 52.224 0 72.192l102.4 102.912c19.968 19.968 52.224 19.968 72.192 0s19.968-52.224 0-72.192l-101.888-102.912c-10.24-10.24-23.040-14.848-36.352-14.848z" />
<glyph unicode="&#xe912;" glyph-name="clock-nine" d="M512-64c-282.537 0-512 229.463-512 512s229.463 512 512 512 512-229.463 512-512-229.984-512-512-512zM512 872.585c-234.146 0-424.585-190.439-424.585-424.585s190.439-424.585 424.585-424.585 424.585 190.439 424.585 424.585-190.439 424.585-424.585 424.585zM512 404.293h-156.098c-23.935 0-43.707 19.772-43.707 43.707s19.772 43.707 43.707 43.707h112.39v216.455c0 23.935 19.772 43.707 43.707 43.707s43.707-19.772 43.707-43.707v-260.163c0-23.935-19.772-43.707-43.707-43.707z" />
<glyph unicode="&#xe913;" glyph-name="close" d="M950.857-64c-19.017 0-37.303 7.314-51.931 21.211l-386.926 386.926-386.926-386.926c-28.526-28.526-74.606-28.526-103.131 0s-28.526 74.606 0 103.131l386.926 386.926-387.657 387.657c-28.526 28.526-28.526 75.337 0 103.863s75.337 28.526 103.863 0l386.926-386.926 386.926 386.926c28.526 28.526 74.606 28.526 103.131 0s28.526-74.606 0-103.131l-386.926-386.926 386.926-386.926c28.526-28.526 28.526-74.606 0-103.131-14.629-14.629-32.914-21.211-51.931-21.211z" />
<glyph unicode="&#xe914;" glyph-name="dropdown-icon" d="M512 155.429c-19.017 0-37.303 7.314-51.931 21.211l-438.857 438.857c-28.526 28.526-28.526 75.337 0 103.863s75.337 28.526 103.863 0l386.926-386.926 386.926 386.926c28.526 28.526 74.606 28.526 103.131 0s28.526-74.606 0-103.131l-438.857-438.857c-14.629-14.629-32.914-21.211-51.931-21.211z" />
<glyph unicode="&#xe915;" glyph-name="email" d="M945.231 670.917l-419.84-262.302-420.628 262.302v104.763l419.84-262.302 419.84 262.302zM944.443 880.443h-839.68c-58.289 0.788-104.763-45.686-104.763-103.975v-630.154c0-27.569 11.028-54.351 30.72-74.043s46.474-30.72 74.043-30.72h840.468c27.569 0 54.351 11.028 74.043 30.72s30.72 46.474 30.72 74.043v630.154c0 27.569-11.028 54.351-30.72 74.043s-46.474 30.72-74.043 30.72z" />
<glyph unicode="&#xe916;" glyph-name="graduation-hat" d="M512 29.091c-6.982 0-14.429 1.862-20.945 5.12l-325.818 162.909c-15.825 7.913-25.6 24.204-25.6 41.425v250.415l-114.036 56.785c-15.825 7.913-25.6 24.204-25.6 41.425s9.775 33.978 25.6 41.425l465.455 233.193c13.033 6.516 28.393 6.516 41.425 0l464.524-232.262c3.258-1.396 6.516-3.258 9.309-5.585v0s0 0 0 0c2.327-1.862 4.189-3.724 6.516-6.051 6.982-7.913 11.171-18.618 11.171-30.255v0-279.273c0-25.6-20.945-46.545-46.545-46.545s-46.545 20.945-46.545 46.545v203.869l-46.545-23.273v-250.415c0-17.687-9.775-33.513-25.6-41.425l-325.818-162.909c-6.516-3.258-13.498-5.12-20.945-5.12zM232.727 267.404l279.273-139.636 279.273 139.636v175.011l-258.327-129.396c-13.033-6.516-28.393-6.516-41.425 0l-258.327 129.396v-175.011zM207.593 559.244l304.407-152.204 304.407 152.204s0.931 0.465 1.862 0.931l55.389 27.927-361.193 180.596-361.193-180.596 55.389-27.927s0.931-0.465 1.862-0.931z" />
<glyph unicode="&#xe917;" glyph-name="id-card-clip" d="M796.16-12.8h-593.92c-61.44 0-95.232 0-125.44 15.36-26.624 13.824-48.128 34.816-61.44 61.44-15.36 30.208-15.36 64-15.36 125.44v440.32c0 61.44 0 95.232 15.36 125.44 13.824 26.624 34.816 48.128 61.44 61.44 30.208 15.36 64 15.36 125.44 15.36h92.16c20.992 0 38.4-17.408 38.4-38.4s-17.408-38.4-38.4-38.4h-92.16c-49.664 0-76.8 0-90.624-7.168-12.288-6.144-22.016-15.872-28.16-28.16-7.168-13.824-7.168-40.96-7.168-90.624v-440.32c0-49.664 0-76.8 7.168-90.624 6.144-12.288 15.872-21.504 28.16-28.16 13.824-7.168 40.96-7.168 90.624-7.168h593.92c49.664 0 76.8 0 90.624 7.168 12.288 6.144 21.504 15.872 28.16 28.16 7.168 13.824 7.168 40.96 7.168 90.624v440.832c0 49.664 0 76.8-7.168 90.624-6.144 12.288-15.872 22.016-28.16 28.16-13.824 7.168-40.96 7.168-90.624 7.168h-92.16c-20.992 0-38.4 17.408-38.4 38.4s17.408 38.4 38.4 38.4h92.16c61.44 0 95.232 0 125.44-15.36 26.624-13.824 48.128-34.816 61.44-61.44 15.36-30.208 15.36-64 15.36-125.44v-440.32c0-61.44 0-95.232-15.36-125.44-13.824-26.624-34.816-48.128-61.44-61.44-30.208-15.36-64-15.36-125.44-15.36zM652.8 192c-17.408 0-32.768 11.776-37.376 29.184-10.752 42.496-59.392 73.216-116.224 73.216s-105.984-30.72-116.224-73.216c-5.12-20.48-26.112-33.28-46.592-28.16s-33.28 26.112-28.16 46.592c18.944 76.288 99.328 131.584 190.976 131.584s172.032-55.296 190.976-131.584c5.12-20.48-7.168-41.472-28.16-46.592-3.072-1.024-6.144-1.024-9.216-1.024zM499.2 448c-49.152 0-89.6 40.448-89.6 89.6s40.448 89.6 89.6 89.6 89.6-40.448 89.6-89.6-40.448-89.6-89.6-89.6zM550.4 857.6h-102.4c-20.992 0-38.4 17.408-38.4 38.4s17.408 38.4 38.4 38.4h102.4c20.992 0 38.4-17.408 38.4-38.4s-17.408-38.4-38.4-38.4z" />
<glyph unicode="&#xe918;" glyph-name="key" d="M298.667 362.667c-23.467 0-43.52 8.533-60.16 25.173s-25.173 36.693-25.173 60.16 8.533 43.52 25.173 60.16c16.64 16.64 36.693 25.173 60.16 25.173s43.52-8.533 60.16-25.173c16.64-16.64 25.173-36.693 25.173-60.16s-8.533-43.52-25.173-60.16c-16.64-16.64-36.693-25.173-60.16-25.173zM298.667 192c-71.253 0-131.413 24.747-181.333 74.667s-74.667 110.080-74.667 181.333 24.747 131.413 74.667 181.333c49.92 49.92 110.080 74.667 181.333 74.667 47.787 0 90.88-11.52 129.707-34.987s69.547-54.187 92.16-93.013h375.467l128-128-192-192-85.333 64-85.333-64-90.453 64h-50.347c-22.613-38.4-53.333-69.12-92.16-93.013-38.827-23.467-81.92-34.987-129.707-34.987zM298.667 277.333c39.68 0 74.667 11.947 104.96 36.267s50.347 54.613 60.16 91.733h133.12l61.867-43.52 87.467 64.853 75.52-58.88 80.213 80.213-42.667 42.667h-395.52c-9.813 37.12-29.867 67.413-60.16 91.733s-65.28 36.267-104.96 36.267c-46.933 0-87.040-16.64-120.32-50.347-33.28-33.28-50.347-73.387-50.347-120.32s16.64-87.040 50.347-120.32c33.28-33.28 73.387-49.92 120.32-49.92z" />
<glyph unicode="&#xe919;" glyph-name="left-small" d="M967.111 391.111h-910.222c-31.099 0-56.889 25.79-56.889 56.889s25.79 56.889 56.889 56.889h910.222c31.099 0 56.889-25.79 56.889-56.889s-25.79-56.889-56.889-56.889zM512-64c-14.412 0-28.824 5.31-40.201 16.687l-455.111 455.111c-21.997 21.997-21.997 58.406 0 80.403l455.111 455.111c21.997 21.997 58.406 21.997 80.403 0s21.997-58.406 0-80.403l-414.91-414.91 414.91-414.91c21.997-21.997 21.997-58.406 0-80.403-11.378-11.378-25.79-16.687-40.201-16.687z" />
<glyph unicode="&#xe91a;" glyph-name="location" d="M512-64v0c-13.824 0-27.136 5.632-36.864 15.36l-43.008 43.52c-169.472 173.568-329.728 336.896-329.728 545.28 0 231.424 183.808 419.84 409.6 419.84s409.6-188.416 409.6-419.84c0-208.384-160.256-371.712-330.24-544.768l-42.496-43.52c-9.728-9.728-23.040-15.36-36.864-15.36zM512 857.6c-169.472 0-307.2-142.336-307.2-317.44s145.92-315.392 301.056-473.088l6.144-6.656 6.144 6.656c154.624 157.696 301.056 306.688 301.056 473.088 0 175.104-137.728 317.44-307.2 317.44zM512 396.8c-84.48 0-153.6 69.12-153.6 153.6s69.12 153.6 153.6 153.6 153.6-69.12 153.6-153.6-69.12-153.6-153.6-153.6zM512 601.6c-28.16 0-51.2-23.040-51.2-51.2s23.040-51.2 51.2-51.2 51.2 23.040 51.2 51.2-23.040 51.2-51.2 51.2z" />
<glyph unicode="&#xe91b;" glyph-name="location-xmark" d="M512-64c-13.824 0-27.136 5.632-36.864 15.36l-43.008 43.52c-169.472 173.568-329.728 336.896-329.728 545.28 0 231.424 183.808 419.84 409.6 419.84s409.6-188.416 409.6-419.84c0-208.384-160.256-371.712-330.24-544.768l-43.008-43.52c-9.728-9.728-23.040-15.36-36.864-15.36zM512 857.6c-169.472 0-307.2-142.336-307.2-317.44s145.92-315.392 301.056-473.088l6.144-6.656 6.144 6.656c154.624 157.696 301.056 306.688 301.056 473.088 0 175.104-137.728 317.44-307.2 317.44zM614.4 396.8c-13.312 0-26.112 5.12-36.352 14.848l-66.048 66.048-66.048-66.048c-19.968-19.968-52.224-19.968-72.192 0s-19.968 52.224 0 72.192l66.048 66.048-66.048 66.048c-19.968 19.968-19.968 52.224 0 72.192s52.224 19.968 72.192 0l66.048-66.048 66.048 66.048c19.968 19.968 52.224 19.968 72.192 0s19.968-52.224 0-72.192l-66.048-66.048 66.048-66.048c19.968-19.968 19.968-52.224 0-72.192-10.24-10.24-23.040-14.848-36.352-14.848z" />
<glyph unicode="&#xe91c;" glyph-name="lock" d="M860.16-56.32h-671.36c-68.48 0-124.8 55.68-124.8 124.8v335.36c0 68.48 55.68 124.8 124.8 124.8h671.36c68.48 0 124.8-55.68 124.8-124.8v-335.36c0-68.48-55.68-124.8-124.8-124.8zM188.8 471.040c-37.12 0-67.2-30.080-67.2-67.2v-335.36c0-37.12 30.080-67.2 67.2-67.2h671.36c37.12 0 67.2 30.080 67.2 67.2v335.36c0 37.12-30.080 67.2-67.2 67.2h-671.36zM764.16 471.040c-16 0-28.8 12.8-28.8 28.8v192c0 56.32-21.76 109.44-62.080 149.12-39.68 39.68-92.8 62.080-149.12 62.080s-110.080-22.4-149.12-62.080c-39.68-39.68-62.080-92.8-62.080-149.12v-192c0-16-12.8-28.8-28.8-28.8s-28.8 12.8-28.8 28.8v192c0 71.68 28.16 138.88 78.72 190.080 49.92 49.92 119.040 78.72 190.080 78.72s138.88-28.16 190.080-78.72c50.56-50.56 78.72-118.4 78.72-190.080v-192c0-16-12.8-28.8-28.8-28.8z" />
<glyph unicode="&#xe91d;" glyph-name="logout" d="M563.2-64h-348.16c-63.488 0-98.304 0-131.072 16.896-29.184 14.848-52.224 37.888-67.072 67.072-16.896 32.768-16.896 67.584-16.896 131.072v593.92c0 63.488 0 98.304 16.896 131.072 14.848 29.184 37.888 52.224 67.072 67.072 32.768 16.896 67.584 16.896 131.072 16.896h348.16c28.16 0 51.2-23.040 51.2-51.2s-23.040-51.2-51.2-51.2h-348.16c-44.544 0-73.728 0-84.48-5.632-9.728-5.12-17.408-12.8-22.528-22.528-5.632-10.752-5.632-40.448-5.632-84.48v-593.92c0-44.544 0-73.728 5.632-84.48 5.12-9.728 12.8-17.408 22.528-22.528 11.264-5.632 40.448-5.632 84.48-5.632h348.16c28.16 0 51.2-23.040 51.2-51.2s-23.040-51.2-51.2-51.2zM768 192c-13.312 0-26.112 5.12-36.352 14.848-19.968 19.968-19.968 52.224 0 72.192l117.248 117.248h-490.496c-28.16 0-51.2 23.040-51.2 51.2s23.040 51.2 51.2 51.2h491.008l-117.248 117.248c-19.968 19.968-19.968 52.224 0 72.192s52.224 19.968 72.192 0l204.8-204.8s0 0 0 0c0 0 0 0 0 0s0 0 0 0v0s0 0 0 0v0c4.608-4.608 8.192-10.24 10.752-16.384s4.096-12.288 4.096-19.456v0c0-7.168-1.536-13.824-4.096-19.968-2.56-5.632-5.632-11.264-10.24-15.872v0s0 0 0 0c0 0 0 0 0 0v0s0 0 0 0c0 0 0 0 0 0s0 0 0 0 0 0 0 0 0 0 0 0l-204.8-204.8c-10.24-10.24-23.040-14.848-36.352-14.848z" />
<glyph unicode="&#xe91e;" d="M536.381-15.238h-258.438c-60.465 0-93.623 0-124.83 16.091-27.794 14.141-49.737 36.084-63.878 63.878-16.091 31.208-16.091 64.853-16.091 124.83v565.638c0 60.465 0 93.623 16.091 124.83 14.141 27.794 36.084 49.737 63.878 63.878 31.208 16.091 64.853 16.091 124.83 16.091h370.59c60.465 0 93.623 0 124.83-16.091 27.794-14.141 49.737-36.084 63.878-63.878 7.314-14.141 16.091-31.208 16.091-505.173 0-26.819-21.943-48.762-48.762-48.762s-48.762 21.943-48.762 48.762c0 297.935-3.901 434.956-7.802 465.676-4.389 7.314-11.215 13.166-18.53 17.067-10.24 5.364-38.522 5.364-80.457 5.364h-370.59c-42.423 0-70.217 0-80.945-5.364-9.265-4.876-16.579-12.19-21.455-21.455-5.364-10.24-5.364-38.522-5.364-80.457v-565.638c0-42.423 0-70.217 5.364-80.457 4.876-9.265 12.19-16.579 21.455-21.455 10.24-5.364 38.522-5.364 80.457-5.364h258.438c26.819 0 48.762-21.943 48.762-48.762s-21.943-48.762-48.762-48.762zM463.238 228.571h-146.286c-26.819 0-48.762 21.943-48.762 48.762s21.943 48.762 48.762 48.762h146.286c26.819 0 48.762-21.943 48.762-48.762s-21.943-48.762-48.762-48.762zM609.524 423.619h-292.571c-26.819 0-48.762 21.943-48.762 48.762s21.943 48.762 48.762 48.762h292.571c26.819 0 48.762-21.943 48.762-48.762s-21.943-48.762-48.762-48.762zM609.524 618.667h-292.571c-26.819 0-48.762 21.943-48.762 48.762s21.943 48.762 48.762 48.762h292.571c26.819 0 48.762-21.943 48.762-48.762s-21.943-48.762-48.762-48.762z" />
<glyph unicode="&#xe91f;" d="M931.352 106.667c0-83.484-67.677-151.162-151.162-151.162s-151.162 67.677-151.162 151.162c0 83.484 67.677 151.162 151.162 151.162s151.162-67.677 151.162-151.162z" />
<glyph unicode="&#xe920;" d="M780.19-64c-94.11 0-170.667 76.556-170.667 170.667s76.556 170.667 170.667 170.667 170.667-76.556 170.667-170.667-76.556-170.667-170.667-170.667zM780.19 237.836c-72.168 0-131.17-59.002-131.17-131.17s59.002-131.17 131.17-131.17 131.17 59.002 131.17 131.17-59.002 131.17-131.17 131.17z" />
<glyph unicode="&#xe921;" d="M809.448 145.676c0-16.579-12.19-29.745-27.307-29.745s-27.307 13.166-27.307 29.745 12.19 29.745 27.307 29.745 27.307-13.166 27.307-29.745z" />
<glyph unicode="&#xe922;" d="M782.141 106.179c-20.48 0-37.059 17.554-37.059 39.497s16.579 39.497 37.059 39.497 37.059-17.554 37.059-39.497-16.579-39.497-37.059-39.497zM782.141 165.181c-9.752 0-17.067-8.777-17.067-19.505s7.802-19.505 17.067-19.505 17.067 8.777 17.067 19.505-7.802 19.505-17.067 19.505z" />
<glyph unicode="&#xe923;" d="M800.183 80.823h-53.15l-17.554-35.596 17.554-17.554h70.705l17.554 35.596-17.554 17.554h-17.554z" />
<glyph unicode="&#xe924;" glyph-name="memo-user-alt" d="M536.381-15.238h-258.438c-60.465 0-93.623 0-124.83 16.091-27.794 14.141-49.737 36.084-63.878 63.878-16.091 31.208-16.091 64.853-16.091 124.83v565.638c0 60.465 0 93.623 16.091 124.83 14.141 27.794 36.084 49.737 63.878 63.878 31.208 16.091 64.366 16.091 124.83 16.091h370.59c60.465 0 93.623 0 124.83-16.091 27.794-14.141 49.737-36.084 63.878-63.878 7.314-14.141 16.091-31.208 16.091-480.792 0-26.819-21.943-48.762-48.762-48.762s-48.762 21.943-48.762 48.762c0 281.844-3.901 411.55-7.802 440.808-4.876 7.314-11.215 13.166-19.017 17.067-10.24 5.364-38.522 5.364-80.457 5.364h-370.59c-42.423 0-70.217 0-80.457-5.364-9.265-4.876-16.579-12.19-21.455-21.455-5.364-10.24-5.364-38.522-5.364-80.457v-565.638c0-42.423 0-70.217 5.364-80.945 4.876-9.265 12.19-16.579 21.455-20.968 10.728-5.364 38.522-5.364 80.457-5.364h258.438c26.819 0 48.762-21.943 48.762-48.762s-21.943-48.762-48.762-48.762zM463.238 228.571h-146.286c-26.819 0-48.762 21.943-48.762 48.762s21.943 48.762 48.762 48.762h146.286c26.819 0 48.762-21.943 48.762-48.762s-21.943-48.762-48.762-48.762zM609.524 423.619h-292.571c-26.819 0-48.762 21.943-48.762 48.762s21.943 48.762 48.762 48.762h292.571c26.819 0 48.762-21.943 48.762-48.762s-21.943-48.762-48.762-48.762zM609.524 618.667h-292.571c-26.819 0-48.762 21.943-48.762 48.762s21.943 48.762 48.762 48.762h292.571c26.819 0 48.762-21.943 48.762-48.762s-21.943-48.762-48.762-48.762zM780.19 122.758c-51.688 0-94.11 39.985-94.11 89.234s42.423 89.234 94.11 89.234 94.11-39.985 94.11-89.234-42.423-89.234-94.11-89.234zM780.19 252.952c-24.869 0-45.349-18.042-45.349-40.472s20.48-40.472 45.349-40.472 45.349 18.042 45.349 40.472-20.48 40.472-45.349 40.472zM915.261-74.728c-13.653 0-24.381 10.728-24.381 24.381 0 60.952-49.737 110.69-110.69 110.69s-110.69-49.737-110.69-110.69c0-13.653-10.728-24.381-24.381-24.381s-24.381 10.728-24.381 24.381c0 87.771 71.192 159.451 159.451 159.451s159.451-71.68 159.451-159.451c0-13.653-10.728-24.381-24.381-24.381z" />
<glyph unicode="&#xe925;" glyph-name="pay-code" d="M834.115-64h-644.229c-104.955 0-189.885 84.931-189.885 189.885v644.229c0 104.955 84.931 189.885 189.885 189.885h644.229c104.955 0 189.885-84.931 189.885-189.885v-644.229c0-104.955-84.931-189.885-189.885-189.885zM189.885 856.426c-47.644 0-86.312-38.668-86.312-86.312v-644.229c0-47.644 38.668-86.312 86.312-86.312h644.229c47.644 0 86.312 38.668 86.312 86.312v644.229c0 47.644-38.668 86.312-86.312 86.312h-644.229zM236.148 212.197c-28.31 0-51.787 23.477-51.787 51.787v368.032c0 28.31 23.477 51.787 51.787 51.787s51.787-23.477 51.787-51.787v-368.032c0-28.31-23.477-51.787-51.787-51.787zM419.819 212.197c-28.31 0-51.787 23.477-51.787 51.787v368.032c0 28.31 23.477 51.787 51.787 51.787s51.787-23.477 51.787-51.787v-368.032c0-28.31-23.477-51.787-51.787-51.787zM604.181 212.197c-28.31 0-51.787 23.477-51.787 51.787v368.032c0 28.31 23.477 51.787 51.787 51.787s51.787-23.477 51.787-51.787v-368.032c0-28.31-23.477-51.787-51.787-51.787zM788.542 212.197c-28.31 0-51.787 23.477-51.787 51.787v368.032c0 28.31 23.477 51.787 51.787 51.787s51.787-23.477 51.787-51.787v-368.032c0-28.31-23.477-51.787-51.787-51.787z" />
<glyph unicode="&#xe926;" glyph-name="profile-circle" d="M518.144 408.064c-3.584 0.512-8.192 0.512-12.288 0-90.112 3.072-161.792 76.8-161.792 167.424s74.752 167.936 167.936 167.936 167.936-75.264 167.936-167.936c-0.512-90.624-71.68-164.352-161.792-167.424zM857.088 70.144c-91.136-83.456-211.968-134.144-345.088-134.144s-253.952 50.688-345.088 134.144c5.12 48.128 35.84 95.232 90.624 132.096 140.288 93.184 369.664 93.184 508.928 0 54.784-36.864 85.504-83.968 90.624-132.096zM512-64c-282.112 0-512 229.888-512 512s229.888 512 512 512 512-229.888 512-512-229.888-512-512-512zM512 908.8c-253.952 0-460.8-206.848-460.8-460.8s206.848-460.8 460.8-460.8 460.8 206.848 460.8 460.8-206.848 460.8-460.8 460.8z" />
<glyph unicode="&#xe927;" glyph-name="user-plus" d="M805.973 35.413h-768c-23.467 0-42.667 19.2-42.667 42.667v85.333c0 141.227 114.773 256 256 256 78.080 0 148.48-35.413 195.413-90.88 42.667 31.147 93.013 48.213 145.92 48.213 145.92 0 256-110.080 256-256v-42.667c0-23.467-19.2-42.667-42.667-42.667zM507.307 120.747h256c0 98.987-71.68 170.667-170.667 170.667-37.547 0-72.96-12.8-101.973-36.693 10.667-28.16 16.64-59.307 16.64-91.307v-42.667zM80.64 120.747h341.333v42.667c0 28.587-6.827 55.467-19.2 78.933-0.853 1.28-1.28 2.56-2.133 3.84-29.013 52.48-85.333 87.893-149.333 87.893-94.293 0-170.667-76.373-170.667-170.667v-42.667zM592.64 419.413c-70.4 0-128 57.6-128 128s57.6 128 128 128 128-57.6 128-128-57.6-128-128-128zM592.64 590.080c-23.467 0-42.667-19.2-42.667-42.667s19.2-42.667 42.667-42.667 42.667 19.2 42.667 42.667-19.2 42.667-42.667 42.667zM251.307 462.080c-94.293 0-170.667 76.373-170.667 170.667s76.373 170.667 170.667 170.667 170.667-76.373 170.667-170.667-76.373-170.667-170.667-170.667zM251.307 718.080c-46.933 0-85.333-38.4-85.333-85.333s38.4-85.333 85.333-85.333 85.333 38.4 85.333 85.333-38.4 85.333-85.333 85.333zM848.64 547.413c-23.467 0-42.667 19.2-42.667 42.667v85.333h-85.333c-23.467 0-42.667 19.2-42.667 42.667s19.2 42.667 42.667 42.667h85.333v85.333c0 23.467 19.2 42.667 42.667 42.667s42.667-19.2 42.667-42.667v-85.333h85.333c23.467 0 42.667-19.2 42.667-42.667s-19.2-42.667-42.667-42.667h-85.333v-85.333c0-23.467-19.2-42.667-42.667-42.667z" />
<glyph unicode="&#xe928;" glyph-name="content_paste" horiz-adv-x="922" d="M102.4-64c-28.16 0-52.224 10.24-72.192 30.208s-30.208 44.032-30.208 72.192v716.8c0 28.16 10.24 52.224 30.208 72.192s44.032 30.208 72.192 30.208h214.016c9.216 29.696 27.648 54.272 54.784 73.728s57.344 28.672 89.6 28.672c34.304 0 64.512-9.728 91.648-28.672 26.624-19.456 45.056-43.52 54.272-73.728h212.48c28.16 0 52.224-10.24 72.192-30.208s30.208-44.032 30.208-72.192v-716.8c0-28.16-10.24-52.224-30.208-72.192s-44.032-30.208-72.192-30.208h-716.8zM102.4 38.4h716.8v716.8h-102.4v-153.6h-512v153.6h-102.4v-716.8zM460.8 755.2c14.336 0 26.624 5.12 36.352 14.848s14.848 22.016 14.848 36.352-5.12 26.624-14.848 36.352c-9.728 9.728-22.016 14.848-36.352 14.848s-26.624-5.12-36.352-14.848c-9.728-9.728-14.848-22.016-14.848-36.352s5.12-26.624 14.848-36.352 22.016-14.848 36.352-14.848z" />
<glyph unicode="&#xe929;" glyph-name="credit_card" horiz-adv-x="1280" d="M1280 832v-768c0-35.2-12.8-65.28-37.76-90.24s-55.040-37.76-90.24-37.76h-1024c-35.2 0-65.28 12.8-90.24 37.76s-37.76 55.040-37.76 90.24v768c0 35.2 12.8 65.28 37.76 90.24s55.040 37.76 90.24 37.76h1024c35.2 0 65.28-12.8 90.24-37.76s37.76-55.040 37.76-90.24zM128 704h1024v128h-1024v-128zM128 448v-384h1024v384h-1024z" />
<glyph unicode="&#xe92a;" glyph-name="inbox" d="M113.778-64c-31.289 0-58.027 11.378-80.213 33.564s-33.564 48.924-33.564 80.213v796.444c0 31.289 11.378 58.027 33.564 80.213s48.924 33.564 80.213 33.564h796.444c31.289 0 58.027-11.378 80.213-33.564s33.564-48.924 33.564-80.213v-796.444c0-31.289-11.378-58.027-33.564-80.213s-48.924-33.564-80.213-33.564h-796.444zM113.778 49.778h796.444v170.667h-170.667c-28.444-35.84-62.578-63.716-101.831-84.196s-81.351-29.582-125.724-29.582-86.471 9.671-125.724 29.582c-39.253 19.911-73.387 47.787-101.831 84.196h-170.667v-170.667zM512 220.444c35.84 0 68.836 10.24 98.418 31.289s50.062 48.356 60.871 82.489h238.933v512h-796.444v-512h238.933c11.378-34.133 31.858-61.44 60.871-82.489 29.582-21.049 62.009-31.289 98.418-31.289z" />
<glyph unicode="&#xe92b;" glyph-name="paid" d="M465.92 89.6h89.6v64c42.496 7.68 79.36 24.576 110.080 50.176s46.080 63.488 46.080 113.664c0 35.84-10.24 68.608-30.72 98.816-20.48 29.696-61.44 55.808-122.88 77.824-51.2 16.896-86.528 31.744-105.984 45.056s-29.184 30.208-29.184 52.736 7.68 39.424 23.552 52.224 38.4 19.456 68.608 19.456c27.136 0 48.64-6.656 64-19.968s26.624-29.696 33.28-49.152l81.92 33.28c-9.216 29.696-26.624 55.808-51.712 78.336-25.088 22.016-53.248 34.304-83.968 36.864v64h-89.6v-64c-42.496-9.216-75.776-28.16-99.84-56.32s-35.84-59.904-35.84-94.72c0-39.936 11.776-72.704 35.328-97.28s60.416-46.080 110.592-64c53.76-19.456 91.136-36.864 112.128-52.224s31.232-35.328 31.232-60.416c0-28.16-10.24-48.64-30.208-61.952s-44.032-19.968-72.192-19.968-53.248 8.704-74.752 26.112c-22.016 17.408-37.888 43.52-48.128 78.848l-84.48-33.28c11.776-40.96 30.72-74.24 55.808-99.328s57.856-42.496 97.792-51.712v-66.56zM512-64c-70.656 0-137.216 13.312-199.68 40.448-62.464 26.624-116.736 63.488-162.816 109.568s-82.432 100.352-109.568 162.816c-26.624 62.464-40.448 129.024-40.448 199.68s13.312 137.216 40.448 199.68c27.136 62.464 63.488 116.736 109.568 162.816s100.352 82.432 162.816 109.568c62.464 26.624 129.024 40.448 199.68 40.448s137.216-13.312 199.68-40.448c62.464-27.136 116.224-63.488 162.816-109.568 46.080-46.080 82.432-100.352 109.568-162.816 26.624-62.464 40.448-129.024 40.448-199.68s-13.312-137.216-40.448-199.68-63.488-116.224-109.568-162.816c-46.080-46.080-100.352-82.432-162.816-109.568s-129.024-40.448-199.68-40.448zM512 38.4c114.176 0 210.944 39.424 290.304 119.296 79.36 79.36 119.296 176.128 119.296 290.304s-39.424 210.944-119.296 290.816c-79.36 79.36-176.128 118.784-290.304 118.784s-210.944-39.936-290.816-118.784c-79.36-79.36-118.784-176.128-118.784-290.816s39.936-210.944 118.784-290.304c79.36-79.36 176.128-119.296 290.816-119.296z" />
<glyph unicode="&#xe92c;" glyph-name="toll" horiz-adv-x="1408" d="M896-64c-142.72 0-263.68 49.28-363.52 149.12-99.2 99.2-148.48 220.16-148.48 362.88s49.92 263.68 148.48 363.52c99.2 99.2 220.16 148.48 363.52 148.48s263.68-49.92 362.88-148.48c99.2-99.2 149.12-220.16 149.12-363.52s-49.28-263.68-149.12-362.88c-99.2-99.2-220.16-149.12-362.88-149.12zM384-48c-113.28 30.080-205.44 90.88-277.12 182.4s-106.88 196.48-106.88 313.6 35.84 222.080 106.88 313.6c71.68 91.52 163.84 152.32 277.12 182.4v-134.4c-76.8-26.88-138.88-72.96-185.6-138.88s-70.4-140.16-70.4-222.72 23.68-156.16 70.4-222.72c46.72-65.92 108.8-112.64 185.6-138.88v-134.4zM896 64c106.88 0 197.12 37.12 272 112s112 165.12 112 272-37.12 197.12-112 272-165.12 112-272 112-197.12-37.12-272-112c-74.88-74.88-112-165.12-112-272s37.12-197.12 112-272c74.88-74.88 165.12-112 272-112z" />
</font>
</defs>
</svg>
